<svg width="561" height="174" viewBox="0 0 561 174" fill="none" xmlns="http://www.w3.org/2000/svg">
<path d="M107.669 79.6C111.329 80.38 114.269 82.21 116.489 85.09C118.709 87.91 119.819 91.15 119.819 94.81C119.819 100.09 117.959 104.29 114.239 107.41C110.579 110.47 105.449 112 98.8487 112H69.4187V48.82H97.8587C104.279 48.82 109.289 50.29 112.889 53.23C116.549 56.17 118.379 60.16 118.379 65.2C118.379 68.92 117.389 72.01 115.409 74.47C113.489 76.93 110.909 78.64 107.669 79.6ZM84.8087 74.38H94.8887C97.4087 74.38 99.3287 73.84 100.649 72.76C102.029 71.62 102.719 69.97 102.719 67.81C102.719 65.65 102.029 64 100.649 62.86C99.3287 61.72 97.4087 61.15 94.8887 61.15H84.8087V74.38ZM96.1487 99.58C98.7287 99.58 100.709 99.01 102.089 97.87C103.529 96.67 104.249 94.96 104.249 92.74C104.249 90.52 103.499 88.78 101.999 87.52C100.559 86.26 98.5487 85.63 95.9687 85.63H84.8087V99.58H96.1487ZM146.835 61.15V73.93H167.445V85.81H146.835V99.67H170.145V112H131.445V48.82H170.145V61.15H146.835ZM222.166 100.84H198.586L194.806 112H178.696L201.556 48.82H219.376L242.236 112H225.946L222.166 100.84ZM218.206 88.96L210.376 65.83L202.636 88.96H218.206ZM274.754 112.63C270.134 112.63 265.994 111.88 262.334 110.38C258.674 108.88 255.734 106.66 253.514 103.72C251.354 100.78 250.214 97.24 250.094 93.1H266.474C266.714 95.44 267.524 97.24 268.904 98.5C270.284 99.7 272.084 100.3 274.304 100.3C276.584 100.3 278.384 99.79 279.704 98.77C281.024 97.69 281.684 96.22 281.684 94.36C281.684 92.8 281.144 91.51 280.064 90.49C279.044 89.47 277.754 88.63 276.194 87.97C274.694 87.31 272.534 86.56 269.714 85.72C265.634 84.46 262.304 83.2 259.724 81.94C257.144 80.68 254.924 78.82 253.064 76.36C251.204 73.9 250.274 70.69 250.274 66.73C250.274 60.85 252.404 56.26 256.664 52.96C260.924 49.6 266.474 47.92 273.314 47.92C280.274 47.92 285.884 49.6 290.144 52.96C294.404 56.26 296.684 60.88 296.984 66.82H280.334C280.214 64.78 279.464 63.19 278.084 62.05C276.704 60.85 274.934 60.25 272.774 60.25C270.914 60.25 269.414 60.76 268.274 61.78C267.134 62.74 266.564 64.15 266.564 66.01C266.564 68.05 267.524 69.64 269.444 70.78C271.364 71.92 274.364 73.15 278.444 74.47C282.524 75.85 285.824 77.17 288.344 78.43C290.924 79.69 293.144 81.52 295.004 83.92C296.864 86.32 297.794 89.41 297.794 93.19C297.794 96.79 296.864 100.06 295.004 103C293.204 105.94 290.564 108.28 287.084 110.02C283.604 111.76 279.494 112.63 274.754 112.63ZM325.355 48.82V112H309.965V48.82H325.355ZM362.068 112.63C357.448 112.63 353.308 111.88 349.648 110.38C345.988 108.88 343.048 106.66 340.828 103.72C338.668 100.78 337.528 97.24 337.408 93.1H353.788C354.028 95.44 354.838 97.24 356.218 98.5C357.598 99.7 359.398 100.3 361.618 100.3C363.898 100.3 365.698 99.79 367.018 98.77C368.338 97.69 368.998 96.22 368.998 94.36C368.998 92.8 368.458 91.51 367.378 90.49C366.358 89.47 365.068 88.63 363.508 87.97C362.008 87.31 359.848 86.56 357.028 85.72C352.948 84.46 349.618 83.2 347.038 81.94C344.458 80.68 342.238 78.82 340.378 76.36C338.518 73.9 337.588 70.69 337.588 66.73C337.588 60.85 339.718 56.26 343.978 52.96C348.238 49.6 353.788 47.92 360.628 47.92C367.588 47.92 373.198 49.6 377.458 52.96C381.718 56.26 383.998 60.88 384.298 66.82H367.648C367.528 64.78 366.778 63.19 365.398 62.05C364.018 60.85 362.248 60.25 360.088 60.25C358.228 60.25 356.728 60.76 355.588 61.78C354.448 62.74 353.878 64.15 353.878 66.01C353.878 68.05 354.838 69.64 356.758 70.78C358.678 71.92 361.678 73.15 365.758 74.47C369.838 75.85 373.138 77.17 375.658 78.43C378.238 79.69 380.458 81.52 382.318 83.92C384.178 86.32 385.108 89.41 385.108 93.19C385.108 96.79 384.178 100.06 382.318 103C380.518 105.94 377.878 108.28 374.398 110.02C370.918 111.76 366.808 112.63 362.068 112.63ZM484.219 48.82L467.749 112H449.119L439.039 70.42L428.599 112H409.969L393.949 48.82H410.419L419.509 94.81L430.759 48.82H447.679L458.479 94.81L467.659 48.82H484.219ZM533.967 100.84H510.387L506.607 112H490.497L513.357 48.82H531.177L554.037 112H537.747L533.967 100.84ZM530.007 88.96L522.177 65.83L514.437 88.96H530.007Z" fill="#F6F7FF"/>
<g clip-path="url(#clip0_1425_1791)">
<mask id="path-2-outside-1_1425_1791" maskUnits="userSpaceOnUse" x="68" y="80" width="488" height="68" fill="black">
<rect fill="white" x="68" y="80" width="488" height="68"/>
<path d="M107.83 113.6C111.49 114.38 114.43 116.21 116.65 119.09C118.87 121.91 119.98 125.15 119.98 128.81C119.98 134.09 118.12 138.29 114.4 141.41C110.74 144.47 105.61 146 99.01 146H69.58V82.82H98.02C104.44 82.82 109.45 84.29 113.05 87.23C116.71 90.17 118.54 94.16 118.54 99.2C118.54 102.92 117.55 106.01 115.57 108.47C113.65 110.93 111.07 112.64 107.83 113.6ZM84.97 108.38H95.05C97.57 108.38 99.49 107.84 100.81 106.76C102.19 105.62 102.88 103.97 102.88 101.81C102.88 99.65 102.19 98 100.81 96.86C99.49 95.72 97.57 95.15 95.05 95.15H84.97V108.38ZM96.31 133.58C98.89 133.58 100.87 133.01 102.25 131.87C103.69 130.67 104.41 128.96 104.41 126.74C104.41 124.52 103.66 122.78 102.16 121.52C100.72 120.26 98.71 119.63 96.13 119.63H84.97V133.58H96.31ZM146.996 95.15V107.93H167.606V119.81H146.996V133.67H170.306V146H131.606V82.82H170.306V95.15H146.996ZM222.328 134.84H198.748L194.968 146H178.858L201.718 82.82H219.538L242.398 146H226.108L222.328 134.84ZM218.368 122.96L210.538 99.83L202.798 122.96H218.368ZM274.915 146.63C270.295 146.63 266.155 145.88 262.495 144.38C258.835 142.88 255.895 140.66 253.675 137.72C251.515 134.78 250.375 131.24 250.255 127.1H266.635C266.875 129.44 267.685 131.24 269.065 132.5C270.445 133.7 272.245 134.3 274.465 134.3C276.745 134.3 278.545 133.79 279.865 132.77C281.185 131.69 281.845 130.22 281.845 128.36C281.845 126.8 281.305 125.51 280.225 124.49C279.205 123.47 277.915 122.63 276.355 121.97C274.855 121.31 272.695 120.56 269.875 119.72C265.795 118.46 262.465 117.2 259.885 115.94C257.305 114.68 255.085 112.82 253.225 110.36C251.365 107.9 250.435 104.69 250.435 100.73C250.435 94.85 252.565 90.26 256.825 86.96C261.085 83.6 266.635 81.92 273.475 81.92C280.435 81.92 286.045 83.6 290.305 86.96C294.565 90.26 296.845 94.88 297.145 100.82H280.495C280.375 98.78 279.625 97.19 278.245 96.05C276.865 94.85 275.095 94.25 272.935 94.25C271.075 94.25 269.575 94.76 268.435 95.78C267.295 96.74 266.725 98.15 266.725 100.01C266.725 102.05 267.685 103.64 269.605 104.78C271.525 105.92 274.525 107.15 278.605 108.47C282.685 109.85 285.985 111.17 288.505 112.43C291.085 113.69 293.305 115.52 295.165 117.92C297.025 120.32 297.955 123.41 297.955 127.19C297.955 130.79 297.025 134.06 295.165 137C293.365 139.94 290.725 142.28 287.245 144.02C283.765 145.76 279.655 146.63 274.915 146.63ZM325.516 82.82V146H310.126V82.82H325.516ZM362.229 146.63C357.609 146.63 353.469 145.88 349.809 144.38C346.149 142.88 343.209 140.66 340.989 137.72C338.829 134.78 337.689 131.24 337.569 127.1H353.949C354.189 129.44 354.999 131.24 356.379 132.5C357.759 133.7 359.559 134.3 361.779 134.3C364.059 134.3 365.859 133.79 367.179 132.77C368.499 131.69 369.159 130.22 369.159 128.36C369.159 126.8 368.619 125.51 367.539 124.49C366.519 123.47 365.229 122.63 363.669 121.97C362.169 121.31 360.009 120.56 357.189 119.72C353.109 118.46 349.779 117.2 347.199 115.94C344.619 114.68 342.399 112.82 340.539 110.36C338.679 107.9 337.749 104.69 337.749 100.73C337.749 94.85 339.879 90.26 344.139 86.96C348.399 83.6 353.949 81.92 360.789 81.92C367.749 81.92 373.359 83.6 377.619 86.96C381.879 90.26 384.159 94.88 384.459 100.82H367.809C367.689 98.78 366.939 97.19 365.559 96.05C364.179 94.85 362.409 94.25 360.249 94.25C358.389 94.25 356.889 94.76 355.749 95.78C354.609 96.74 354.039 98.15 354.039 100.01C354.039 102.05 354.999 103.64 356.919 104.78C358.839 105.92 361.839 107.15 365.919 108.47C369.999 109.85 373.299 111.17 375.819 112.43C378.399 113.69 380.619 115.52 382.479 117.92C384.339 120.32 385.269 123.41 385.269 127.19C385.269 130.79 384.339 134.06 382.479 137C380.679 139.94 378.039 142.28 374.559 144.02C371.079 145.76 366.969 146.63 362.229 146.63ZM484.38 82.82L467.91 146H449.28L439.2 104.42L428.76 146H410.13L394.11 82.82H410.58L419.67 128.81L430.92 82.82H447.84L458.64 128.81L467.82 82.82H484.38ZM534.128 134.84H510.548L506.768 146H490.658L513.518 82.82H531.338L554.198 146H537.908L534.128 134.84ZM530.168 122.96L522.338 99.83L514.598 122.96H530.168Z"/>
</mask>
<path d="M107.83 113.6L107.546 112.641L107.622 114.578L107.83 113.6ZM116.65 119.09L115.858 119.701L115.864 119.709L116.65 119.09ZM114.4 141.41L115.041 142.177L115.043 142.176L114.4 141.41ZM69.58 146H68.58V147H69.58V146ZM69.58 82.82V81.82H68.58V82.82H69.58ZM113.05 87.23L112.417 88.0046L112.424 88.0096L113.05 87.23ZM115.57 108.47L114.791 107.843L114.786 107.849L114.782 107.855L115.57 108.47ZM84.97 108.38H83.97V109.38H84.97V108.38ZM100.81 106.76L101.443 107.534L101.447 107.531L100.81 106.76ZM100.81 96.86L100.156 97.6168L100.165 97.624L100.173 97.631L100.81 96.86ZM84.97 95.15V94.15H83.97V95.15H84.97ZM102.25 131.87L102.887 132.641L102.89 132.638L102.25 131.87ZM102.16 121.52L101.501 122.273L101.509 122.279L101.517 122.286L102.16 121.52ZM84.97 119.63V118.63H83.97V119.63H84.97ZM84.97 133.58H83.97V134.58H84.97V133.58ZM107.622 114.578C111.057 115.31 113.787 117.014 115.858 119.701L117.442 118.479C115.073 115.406 111.923 113.45 108.038 112.622L107.622 114.578ZM115.864 119.709C117.943 122.349 118.98 125.37 118.98 128.81H120.98C120.98 124.93 119.797 121.471 117.436 118.471L115.864 119.709ZM118.98 128.81C118.98 133.824 117.229 137.732 113.757 140.644L115.043 142.176C119.011 138.848 120.98 134.356 120.98 128.81H118.98ZM113.759 140.643C110.337 143.504 105.465 145 99.01 145V147C105.755 147 111.143 145.436 115.041 142.177L113.759 140.643ZM99.01 145H69.58V147H99.01V145ZM70.58 146V82.82H68.58V146H70.58ZM69.58 83.82H98.02V81.82H69.58V83.82ZM98.02 83.82C104.297 83.82 109.053 85.2573 112.417 88.0045L113.683 86.4555C109.847 83.3227 104.583 81.82 98.02 81.82V83.82ZM112.424 88.0096C115.828 90.7443 117.54 94.4375 117.54 99.2H119.54C119.54 93.8825 117.592 89.5957 113.676 86.4504L112.424 88.0096ZM117.54 99.2C117.54 102.734 116.603 105.591 114.791 107.843L116.349 109.097C118.497 106.429 119.54 103.106 119.54 99.2H117.54ZM114.782 107.855C113.001 110.137 110.604 111.735 107.546 112.641L108.114 114.559C111.536 113.545 114.299 111.723 116.358 109.085L114.782 107.855ZM84.97 109.38H95.05V107.38H84.97V109.38ZM95.05 109.38C97.6943 109.38 99.8766 108.816 101.443 107.534L100.177 105.986C99.1034 106.864 97.4457 107.38 95.05 107.38V109.38ZM101.447 107.531C103.105 106.162 103.88 104.2 103.88 101.81H101.88C101.88 103.74 101.275 105.078 100.173 105.989L101.447 107.531ZM103.88 101.81C103.88 99.4197 103.105 97.4584 101.447 96.089L100.173 97.631C101.275 98.5416 101.88 99.8803 101.88 101.81H103.88ZM101.464 96.1032C99.8959 94.7492 97.7052 94.15 95.05 94.15V96.15C97.4348 96.15 99.0841 96.6908 100.156 97.6168L101.464 96.1032ZM95.05 94.15H84.97V96.15H95.05V94.15ZM83.97 95.15V108.38H85.97V95.15H83.97ZM96.31 134.58C99.0222 134.58 101.263 133.982 102.887 132.641L101.613 131.099C100.477 132.038 98.7578 132.58 96.31 132.58V134.58ZM102.89 132.638C104.601 131.213 105.41 129.196 105.41 126.74H103.41C103.41 128.724 102.779 130.127 101.61 131.102L102.89 132.638ZM105.41 126.74C105.41 124.269 104.561 122.231 102.803 120.754L101.517 122.286C102.759 123.329 103.41 124.771 103.41 126.74H105.41ZM102.819 120.767C101.141 119.3 98.8671 118.63 96.13 118.63V120.63C98.5529 120.63 100.299 121.22 101.501 122.273L102.819 120.767ZM96.13 118.63H84.97V120.63H96.13V118.63ZM83.97 119.63V133.58H85.97V119.63H83.97ZM84.97 134.58H96.31V132.58H84.97V134.58ZM146.996 95.15V94.15H145.996V95.15H146.996ZM146.996 107.93H145.996V108.93H146.996V107.93ZM167.606 107.93H168.606V106.93H167.606V107.93ZM167.606 119.81V120.81H168.606V119.81H167.606ZM146.996 119.81V118.81H145.996V119.81H146.996ZM146.996 133.67H145.996V134.67H146.996V133.67ZM170.306 133.67H171.306V132.67H170.306V133.67ZM170.306 146V147H171.306V146H170.306ZM131.606 146H130.606V147H131.606V146ZM131.606 82.82V81.82H130.606V82.82H131.606ZM170.306 82.82H171.306V81.82H170.306V82.82ZM170.306 95.15V96.15H171.306V95.15H170.306ZM145.996 95.15V107.93H147.996V95.15H145.996ZM146.996 108.93H167.606V106.93H146.996V108.93ZM166.606 107.93V119.81H168.606V107.93H166.606ZM167.606 118.81H146.996V120.81H167.606V118.81ZM145.996 119.81V133.67H147.996V119.81H145.996ZM146.996 134.67H170.306V132.67H146.996V134.67ZM169.306 133.67V146H171.306V133.67H169.306ZM170.306 145H131.606V147H170.306V145ZM132.606 146V82.82H130.606V146H132.606ZM131.606 83.82H170.306V81.82H131.606V83.82ZM169.306 82.82V95.15H171.306V82.82H169.306ZM170.306 94.15H146.996V96.15H170.306V94.15ZM222.328 134.84L223.275 134.519L223.045 133.84H222.328V134.84ZM198.748 134.84V133.84H198.03L197.8 134.519L198.748 134.84ZM194.968 146V147H195.685L195.915 146.321L194.968 146ZM178.858 146L177.917 145.66L177.432 147H178.858V146ZM201.718 82.82V81.82H201.016L200.777 82.4798L201.718 82.82ZM219.538 82.82L220.478 82.4798L220.239 81.82H219.538V82.82ZM242.398 146V147H243.823L243.338 145.66L242.398 146ZM226.108 146L225.16 146.321L225.39 147H226.108V146ZM218.368 122.96V123.96H219.762L219.315 122.639L218.368 122.96ZM210.538 99.83L211.485 99.5094L210.532 96.6951L209.589 99.5127L210.538 99.83ZM202.798 122.96L201.849 122.643L201.408 123.96H202.798V122.96ZM222.328 133.84H198.748V135.84H222.328V133.84ZM197.8 134.519L194.02 145.679L195.915 146.321L199.695 135.161L197.8 134.519ZM194.968 145H178.858V147H194.968V145ZM179.798 146.34L202.658 83.1602L200.777 82.4798L177.917 145.66L179.798 146.34ZM201.718 83.82H219.538V81.82H201.718V83.82ZM218.597 83.1602L241.457 146.34L243.338 145.66L220.478 82.4798L218.597 83.1602ZM242.398 145H226.108V147H242.398V145ZM227.055 145.679L223.275 134.519L221.38 135.161L225.16 146.321L227.055 145.679ZM219.315 122.639L211.485 99.5094L209.59 100.151L217.42 123.281L219.315 122.639ZM209.589 99.5127L201.849 122.643L203.746 123.277L211.486 100.147L209.589 99.5127ZM202.798 123.96H218.368V121.96H202.798V123.96ZM262.495 144.38L262.116 145.305L262.495 144.38ZM253.675 137.72L252.869 138.312L252.877 138.323L253.675 137.72ZM250.255 127.1V126.1H249.226L249.255 127.129L250.255 127.1ZM266.635 127.1L267.63 126.998L267.538 126.1H266.635V127.1ZM269.065 132.5L268.391 133.238L268.4 133.247L268.409 133.255L269.065 132.5ZM279.865 132.77L280.476 133.561L280.487 133.553L280.498 133.544L279.865 132.77ZM280.225 124.49L279.518 125.197L279.528 125.207L279.538 125.217L280.225 124.49ZM276.355 121.97L275.952 122.885L275.959 122.888L275.965 122.891L276.355 121.97ZM269.875 119.72L269.58 120.676L269.59 120.678L269.875 119.72ZM253.225 110.36L254.023 109.757L253.225 110.36ZM256.825 86.96L257.437 87.7506L257.444 87.7452L256.825 86.96ZM290.305 86.96L289.686 87.7452L289.693 87.7505L290.305 86.96ZM297.145 100.82V101.82H298.197L298.144 100.77L297.145 100.82ZM280.495 100.82L279.497 100.879L279.552 101.82H280.495V100.82ZM278.245 96.05L277.589 96.8046L277.598 96.8129L277.608 96.821L278.245 96.05ZM268.435 95.78L269.079 96.5449L269.091 96.5352L269.102 96.5252L268.435 95.78ZM269.605 104.78L270.116 103.92L269.605 104.78ZM278.605 108.47L278.925 107.523L278.913 107.519L278.605 108.47ZM288.505 112.43L288.058 113.324L288.066 113.329L288.505 112.43ZM295.165 117.92L294.375 118.533L295.165 117.92ZM295.165 137L294.32 136.465L294.316 136.472L294.312 136.478L295.165 137ZM287.245 144.02L286.798 143.126L287.245 144.02ZM274.915 145.63C270.404 145.63 266.395 144.898 262.874 143.455L262.116 145.305C265.915 146.862 270.186 147.63 274.915 147.63V145.63ZM262.874 143.455C259.368 142.018 256.577 139.904 254.473 137.117L252.877 138.323C255.213 141.416 258.302 143.742 262.116 145.305L262.874 143.455ZM254.481 137.128C252.457 134.373 251.37 131.036 251.255 127.071L249.255 127.129C249.38 131.444 250.573 135.187 252.869 138.312L254.481 137.128ZM250.255 128.1H266.635V126.1H250.255V128.1ZM265.64 127.202C265.899 129.721 266.786 131.773 268.391 133.238L269.739 131.762C268.584 130.707 267.851 129.159 267.63 126.998L265.64 127.202ZM268.409 133.255C270.008 134.645 272.058 135.3 274.465 135.3V133.3C272.432 133.3 270.882 132.755 269.721 131.745L268.409 133.255ZM274.465 135.3C276.886 135.3 278.927 134.759 280.476 133.561L279.254 131.979C278.163 132.821 276.604 133.3 274.465 133.3V135.3ZM280.498 133.544C282.073 132.255 282.845 130.489 282.845 128.36H280.845C280.845 129.951 280.297 131.125 279.232 131.996L280.498 133.544ZM282.845 128.36C282.845 126.54 282.203 124.982 280.912 123.763L279.538 125.217C280.407 126.038 280.845 127.06 280.845 128.36H282.845ZM280.932 123.783C279.807 122.657 278.403 121.751 276.745 121.049L275.965 122.891C277.427 123.509 278.603 124.283 279.518 125.197L280.932 123.783ZM276.758 121.055C275.201 120.37 272.994 119.606 270.16 118.762L269.59 120.678C272.396 121.514 274.509 122.25 275.952 122.885L276.758 121.055ZM270.17 118.765C266.118 117.513 262.841 116.271 260.324 115.041L259.446 116.839C262.089 118.129 265.472 119.407 269.58 120.675L270.17 118.765ZM260.324 115.041C257.895 113.855 255.795 112.101 254.023 109.757L252.427 110.963C254.375 113.539 256.715 115.505 259.446 116.839L260.324 115.041ZM254.023 109.757C252.327 107.514 251.435 104.535 251.435 100.73H249.435C249.435 104.845 250.403 108.286 252.427 110.963L254.023 109.757ZM251.435 100.73C251.435 95.1268 253.446 90.8421 257.437 87.7505L256.213 86.1694C251.684 89.6779 249.435 94.5732 249.435 100.73H251.435ZM257.444 87.7452C261.486 84.5572 266.8 82.92 273.475 82.92V80.92C266.47 80.92 260.684 82.6428 256.206 86.1748L257.444 87.7452ZM273.475 82.92C280.275 82.92 285.647 84.5595 289.686 87.7452L290.924 86.1748C286.443 82.6405 280.595 80.92 273.475 80.92V82.92ZM289.693 87.7505C293.696 90.8521 295.859 95.1877 296.146 100.87L298.144 100.77C297.831 94.5723 295.434 89.6679 290.917 86.1694L289.693 87.7505ZM297.145 99.82H280.495V101.82H297.145V99.82ZM281.493 100.761C281.36 98.4872 280.507 96.6217 278.882 95.279L277.608 96.821C278.743 97.7583 279.391 99.0728 279.497 100.879L281.493 100.761ZM278.901 95.2954C277.307 93.9094 275.29 93.25 272.935 93.25V95.25C274.9 95.25 276.423 95.7906 277.589 96.8046L278.901 95.2954ZM272.935 93.25C270.885 93.25 269.129 93.817 267.768 95.0348L269.102 96.5252C270.021 95.703 271.265 95.25 272.935 95.25V93.25ZM267.791 95.0151C266.371 96.211 265.725 97.9346 265.725 100.01H267.725C267.725 98.3654 268.219 97.269 269.079 96.5449L267.791 95.0151ZM265.725 100.01C265.725 102.441 266.906 104.34 269.094 105.64L270.116 103.92C268.464 102.94 267.725 101.659 267.725 100.01H265.725ZM269.094 105.64C271.113 106.838 274.199 108.095 278.297 109.421L278.913 107.519C274.852 106.205 271.937 105.002 270.116 103.92L269.094 105.64ZM278.285 109.417C282.341 110.789 285.594 112.093 288.058 113.324L288.952 111.536C286.376 110.247 283.029 108.911 278.925 107.523L278.285 109.417ZM288.066 113.329C290.501 114.518 292.603 116.246 294.375 118.533L295.955 117.307C294.007 114.794 291.669 112.862 288.944 111.531L288.066 113.329ZM294.375 118.533C296.068 120.718 296.955 123.576 296.955 127.19H298.955C298.955 123.244 297.982 119.922 295.955 117.307L294.375 118.533ZM296.955 127.19C296.955 130.608 296.075 133.691 294.32 136.465L296.01 137.535C297.975 134.429 298.955 130.972 298.955 127.19H296.955ZM294.312 136.478C292.622 139.238 290.133 141.458 286.798 143.126L287.692 144.914C291.317 143.102 294.108 140.642 296.018 137.522L294.312 136.478ZM286.798 143.126C283.484 144.783 279.533 145.63 274.915 145.63V147.63C279.777 147.63 284.046 146.737 287.692 144.914L286.798 143.126ZM325.516 82.82H326.516V81.82H325.516V82.82ZM325.516 146V147H326.516V146H325.516ZM310.126 146H309.126V147H310.126V146ZM310.126 82.82V81.82H309.126V82.82H310.126ZM324.516 82.82V146H326.516V82.82H324.516ZM325.516 145H310.126V147H325.516V145ZM311.126 146V82.82H309.126V146H311.126ZM310.126 83.82H325.516V81.82H310.126V83.82ZM349.809 144.38L349.43 145.305L349.809 144.38ZM340.989 137.72L340.183 138.312L340.191 138.323L340.989 137.72ZM337.569 127.1V126.1H336.54L336.569 127.129L337.569 127.1ZM353.949 127.1L354.944 126.998L354.852 126.1H353.949V127.1ZM356.379 132.5L355.705 133.238L355.714 133.247L355.723 133.255L356.379 132.5ZM367.179 132.77L367.79 133.561L367.802 133.553L367.812 133.544L367.179 132.77ZM367.539 124.49L366.832 125.197L366.842 125.207L366.852 125.217L367.539 124.49ZM363.669 121.97L363.266 122.885L363.273 122.888L363.279 122.891L363.669 121.97ZM357.189 119.72L356.894 120.676L356.904 120.678L357.189 119.72ZM340.539 110.36L341.337 109.757L340.539 110.36ZM344.139 86.96L344.751 87.7506L344.758 87.7452L344.139 86.96ZM377.619 86.96L377 87.7452L377.007 87.7505L377.619 86.96ZM384.459 100.82V101.82H385.511L385.458 100.77L384.459 100.82ZM367.809 100.82L366.811 100.879L366.866 101.82H367.809V100.82ZM365.559 96.05L364.903 96.8046L364.912 96.8129L364.922 96.821L365.559 96.05ZM355.749 95.78L356.393 96.5449L356.405 96.5352L356.416 96.5252L355.749 95.78ZM356.919 104.78L357.43 103.92L356.919 104.78ZM365.919 108.47L366.24 107.523L366.227 107.519L365.919 108.47ZM375.819 112.43L375.372 113.324L375.38 113.329L375.819 112.43ZM382.479 117.92L381.689 118.533L382.479 117.92ZM382.479 137L381.634 136.465L381.63 136.472L381.626 136.478L382.479 137ZM374.559 144.02L374.112 143.126L374.559 144.02ZM362.229 145.63C357.718 145.63 353.71 144.898 350.188 143.455L349.43 145.305C353.229 146.862 357.501 147.63 362.229 147.63V145.63ZM350.188 143.455C346.682 142.018 343.891 139.904 341.787 137.117L340.191 138.323C342.527 141.416 345.616 143.742 349.43 145.305L350.188 143.455ZM341.795 137.128C339.771 134.373 338.684 131.036 338.569 127.071L336.569 127.129C336.695 131.444 337.887 135.187 340.183 138.312L341.795 137.128ZM337.569 128.1H353.949V126.1H337.569V128.1ZM352.954 127.202C353.213 129.721 354.1 131.773 355.705 133.238L357.053 131.762C355.898 130.707 355.165 129.159 354.944 126.998L352.954 127.202ZM355.723 133.255C357.322 134.645 359.372 135.3 361.779 135.3V133.3C359.746 133.3 358.196 132.755 357.035 131.745L355.723 133.255ZM361.779 135.3C364.2 135.3 366.241 134.759 367.79 133.561L366.568 131.979C365.477 132.821 363.918 133.3 361.779 133.3V135.3ZM367.812 133.544C369.387 132.255 370.159 130.489 370.159 128.36H368.159C368.159 129.951 367.611 131.125 366.546 131.996L367.812 133.544ZM370.159 128.36C370.159 126.54 369.517 124.982 368.226 123.763L366.852 125.217C367.721 126.038 368.159 127.06 368.159 128.36H370.159ZM368.246 123.783C367.121 122.657 365.717 121.751 364.059 121.049L363.279 122.891C364.741 123.509 365.917 124.283 366.832 125.197L368.246 123.783ZM364.072 121.055C362.515 120.37 360.308 119.606 357.475 118.762L356.904 120.678C359.71 121.514 361.823 122.25 363.266 122.885L364.072 121.055ZM357.484 118.765C353.432 117.513 350.155 116.271 347.638 115.041L346.76 116.839C349.403 118.129 352.786 119.407 356.894 120.675L357.484 118.765ZM347.638 115.041C345.209 113.855 343.109 112.101 341.337 109.757L339.741 110.963C341.689 113.539 344.029 115.505 346.76 116.839L347.638 115.041ZM341.337 109.757C339.641 107.514 338.749 104.535 338.749 100.73H336.749C336.749 104.845 337.717 108.286 339.741 110.963L341.337 109.757ZM338.749 100.73C338.749 95.1268 340.76 90.8421 344.751 87.7505L343.527 86.1694C338.998 89.6779 336.749 94.5732 336.749 100.73H338.749ZM344.758 87.7452C348.8 84.5572 354.114 82.92 360.789 82.92V80.92C353.784 80.92 347.998 82.6428 343.52 86.1748L344.758 87.7452ZM360.789 82.92C367.589 82.92 372.961 84.5595 377 87.7452L378.238 86.1748C373.757 82.6405 367.909 80.92 360.789 80.92V82.92ZM377.007 87.7505C381.011 90.8521 383.173 95.1877 383.46 100.87L385.458 100.77C385.145 94.5723 382.748 89.6679 378.231 86.1694L377.007 87.7505ZM384.459 99.82H367.809V101.82H384.459V99.82ZM368.807 100.761C368.674 98.4872 367.821 96.6217 366.196 95.279L364.922 96.821C366.057 97.7583 366.705 99.0728 366.811 100.879L368.807 100.761ZM366.215 95.2954C364.621 93.9094 362.604 93.25 360.249 93.25V95.25C362.214 95.25 363.737 95.7906 364.903 96.8046L366.215 95.2954ZM360.249 93.25C358.199 93.25 356.443 93.817 355.082 95.0348L356.416 96.5252C357.335 95.703 358.579 95.25 360.249 95.25V93.25ZM355.105 95.0151C353.685 96.211 353.039 97.9346 353.039 100.01H355.039C355.039 98.3654 355.533 97.269 356.393 96.5449L355.105 95.0151ZM353.039 100.01C353.039 102.441 354.22 104.34 356.409 105.64L357.43 103.92C355.778 102.94 355.039 101.659 355.039 100.01H353.039ZM356.409 105.64C358.427 106.838 361.513 108.095 365.611 109.421L366.227 107.519C362.166 106.205 359.251 105.002 357.43 103.92L356.409 105.64ZM365.599 109.417C369.655 110.789 372.908 112.093 375.372 113.324L376.266 111.536C373.69 110.247 370.343 108.911 366.239 107.523L365.599 109.417ZM375.38 113.329C377.815 114.518 379.917 116.246 381.689 118.533L383.269 117.307C381.321 114.794 378.983 112.862 376.258 111.531L375.38 113.329ZM381.689 118.533C383.382 120.718 384.269 123.576 384.269 127.19H386.269C386.269 123.244 385.296 119.922 383.269 117.307L381.689 118.533ZM384.269 127.19C384.269 130.608 383.389 133.691 381.634 136.465L383.324 137.535C385.289 134.429 386.269 130.972 386.269 127.19H384.269ZM381.626 136.478C379.936 139.238 377.447 141.458 374.112 143.126L375.006 144.914C378.632 143.102 381.422 140.642 383.332 137.522L381.626 136.478ZM374.112 143.126C370.798 144.783 366.847 145.63 362.229 145.63V147.63C367.091 147.63 371.36 146.737 375.006 144.914L374.112 143.126ZM484.38 82.82L485.348 83.0723L485.674 81.82H484.38V82.82ZM467.91 146V147H468.683L468.878 146.252L467.91 146ZM449.28 146L448.308 146.236L448.494 147H449.28V146ZM439.2 104.42L440.172 104.184L438.23 104.176L439.2 104.42ZM428.76 146V147H429.54L429.73 146.244L428.76 146ZM410.13 146L409.161 146.246L409.352 147H410.13V146ZM394.11 82.82V81.82H392.825L393.141 83.0658L394.11 82.82ZM410.58 82.82L411.561 82.6261L411.402 81.82H410.58V82.82ZM419.67 128.81L418.689 129.004L420.642 129.048L419.67 128.81ZM430.92 82.82V81.82H430.135L429.949 82.5824L430.92 82.82ZM447.84 82.82L448.814 82.5914L448.633 81.82H447.84V82.82ZM458.64 128.81L457.667 129.039L459.621 129.006L458.64 128.81ZM467.82 82.82V81.82H467L466.84 82.6243L467.82 82.82ZM483.413 82.5677L466.943 145.748L468.878 146.252L485.348 83.0723L483.413 82.5677ZM467.91 145H449.28V147H467.91V145ZM450.252 145.764L440.172 104.184L438.228 104.656L448.308 146.236L450.252 145.764ZM438.23 104.176L427.79 145.756L429.73 146.244L440.17 104.664L438.23 104.176ZM428.76 145H410.13V147H428.76V145ZM411.099 145.754L395.079 82.5742L393.141 83.0658L409.161 146.246L411.099 145.754ZM394.11 83.82H410.58V81.82H394.11V83.82ZM409.599 83.0139L418.689 129.004L420.651 128.616L411.561 82.6261L409.599 83.0139ZM420.642 129.048L431.892 83.0576L429.949 82.5824L418.699 128.572L420.642 129.048ZM430.92 83.82H447.84V81.82H430.92V83.82ZM446.867 83.0486L457.667 129.039L459.614 128.581L448.814 82.5914L446.867 83.0486ZM459.621 129.006L468.801 83.0157L466.84 82.6243L457.66 128.614L459.621 129.006ZM467.82 83.82H484.38V81.82H467.82V83.82ZM534.128 134.84L535.076 134.519L534.845 133.84H534.128V134.84ZM510.548 134.84V133.84H509.831L509.601 134.519L510.548 134.84ZM506.768 146V147H507.485L507.715 146.321L506.768 146ZM490.658 146L489.718 145.66L489.233 147H490.658V146ZM513.518 82.82V81.82H512.817L512.578 82.4798L513.518 82.82ZM531.338 82.82L532.279 82.4798L532.04 81.82H531.338V82.82ZM554.198 146V147H555.624L555.139 145.66L554.198 146ZM537.908 146L536.961 146.321L537.191 147H537.908V146ZM530.168 122.96V123.96H531.563L531.116 122.639L530.168 122.96ZM522.338 99.83L523.286 99.5094L522.333 96.6951L521.39 99.5127L522.338 99.83ZM514.598 122.96L513.65 122.643L513.209 123.96H514.598V122.96ZM534.128 133.84H510.548V135.84H534.128V133.84ZM509.601 134.519L505.821 145.679L507.715 146.321L511.496 135.161L509.601 134.519ZM506.768 145H490.658V147H506.768V145ZM491.599 146.34L514.459 83.1602L512.578 82.4798L489.718 145.66L491.599 146.34ZM513.518 83.82H531.338V81.82H513.518V83.82ZM530.398 83.1602L553.258 146.34L555.139 145.66L532.279 82.4798L530.398 83.1602ZM554.198 145H537.908V147H554.198V145ZM538.855 145.679L535.076 134.519L533.181 135.161L536.961 146.321L538.855 145.679ZM531.116 122.639L523.286 99.5094L521.391 100.151L529.221 123.281L531.116 122.639ZM521.39 99.5127L513.65 122.643L515.547 123.277L523.287 100.147L521.39 99.5127ZM514.598 123.96H530.168V121.96H514.598V123.96Z" fill="#F4F5FE" mask="url(#path-2-outside-1_1425_1791)"/>
</g>
<g clip-path="url(#clip1_1425_1791)">
<mask id="path-4-outside-2_1425_1791" maskUnits="userSpaceOnUse" x="68" y="103" width="488" height="68" fill="black">
<rect fill="white" x="68" y="103" width="488" height="68"/>
<path d="M107.83 136.6C111.49 137.38 114.43 139.21 116.65 142.09C118.87 144.91 119.98 148.15 119.98 151.81C119.98 157.09 118.12 161.29 114.4 164.41C110.74 167.47 105.61 169 99.01 169H69.58V105.82H98.02C104.44 105.82 109.45 107.29 113.05 110.23C116.71 113.17 118.54 117.16 118.54 122.2C118.54 125.92 117.55 129.01 115.57 131.47C113.65 133.93 111.07 135.64 107.83 136.6ZM84.97 131.38H95.05C97.57 131.38 99.49 130.84 100.81 129.76C102.19 128.62 102.88 126.97 102.88 124.81C102.88 122.65 102.19 121 100.81 119.86C99.49 118.72 97.57 118.15 95.05 118.15H84.97V131.38ZM96.31 156.58C98.89 156.58 100.87 156.01 102.25 154.87C103.69 153.67 104.41 151.96 104.41 149.74C104.41 147.52 103.66 145.78 102.16 144.52C100.72 143.26 98.71 142.63 96.13 142.63H84.97V156.58H96.31ZM146.996 118.15V130.93H167.606V142.81H146.996V156.67H170.306V169H131.606V105.82H170.306V118.15H146.996ZM222.328 157.84H198.748L194.968 169H178.858L201.718 105.82H219.538L242.398 169H226.108L222.328 157.84ZM218.368 145.96L210.538 122.83L202.798 145.96H218.368ZM274.915 169.63C270.295 169.63 266.155 168.88 262.495 167.38C258.835 165.88 255.895 163.66 253.675 160.72C251.515 157.78 250.375 154.24 250.255 150.1H266.635C266.875 152.44 267.685 154.24 269.065 155.5C270.445 156.7 272.245 157.3 274.465 157.3C276.745 157.3 278.545 156.79 279.865 155.77C281.185 154.69 281.845 153.22 281.845 151.36C281.845 149.8 281.305 148.51 280.225 147.49C279.205 146.47 277.915 145.63 276.355 144.97C274.855 144.31 272.695 143.56 269.875 142.72C265.795 141.46 262.465 140.2 259.885 138.94C257.305 137.68 255.085 135.82 253.225 133.36C251.365 130.9 250.435 127.69 250.435 123.73C250.435 117.85 252.565 113.26 256.825 109.96C261.085 106.6 266.635 104.92 273.475 104.92C280.435 104.92 286.045 106.6 290.305 109.96C294.565 113.26 296.845 117.88 297.145 123.82H280.495C280.375 121.78 279.625 120.19 278.245 119.05C276.865 117.85 275.095 117.25 272.935 117.25C271.075 117.25 269.575 117.76 268.435 118.78C267.295 119.74 266.725 121.15 266.725 123.01C266.725 125.05 267.685 126.64 269.605 127.78C271.525 128.92 274.525 130.15 278.605 131.47C282.685 132.85 285.985 134.17 288.505 135.43C291.085 136.69 293.305 138.52 295.165 140.92C297.025 143.32 297.955 146.41 297.955 150.19C297.955 153.79 297.025 157.06 295.165 160C293.365 162.94 290.725 165.28 287.245 167.02C283.765 168.76 279.655 169.63 274.915 169.63ZM325.516 105.82V169H310.126V105.82H325.516ZM362.229 169.63C357.609 169.63 353.469 168.88 349.809 167.38C346.149 165.88 343.209 163.66 340.989 160.72C338.829 157.78 337.689 154.24 337.569 150.1H353.949C354.189 152.44 354.999 154.24 356.379 155.5C357.759 156.7 359.559 157.3 361.779 157.3C364.059 157.3 365.859 156.79 367.179 155.77C368.499 154.69 369.159 153.22 369.159 151.36C369.159 149.8 368.619 148.51 367.539 147.49C366.519 146.47 365.229 145.63 363.669 144.97C362.169 144.31 360.009 143.56 357.189 142.72C353.109 141.46 349.779 140.2 347.199 138.94C344.619 137.68 342.399 135.82 340.539 133.36C338.679 130.9 337.749 127.69 337.749 123.73C337.749 117.85 339.879 113.26 344.139 109.96C348.399 106.6 353.949 104.92 360.789 104.92C367.749 104.92 373.359 106.6 377.619 109.96C381.879 113.26 384.159 117.88 384.459 123.82H367.809C367.689 121.78 366.939 120.19 365.559 119.05C364.179 117.85 362.409 117.25 360.249 117.25C358.389 117.25 356.889 117.76 355.749 118.78C354.609 119.74 354.039 121.15 354.039 123.01C354.039 125.05 354.999 126.64 356.919 127.78C358.839 128.92 361.839 130.15 365.919 131.47C369.999 132.85 373.299 134.17 375.819 135.43C378.399 136.69 380.619 138.52 382.479 140.92C384.339 143.32 385.269 146.41 385.269 150.19C385.269 153.79 384.339 157.06 382.479 160C380.679 162.94 378.039 165.28 374.559 167.02C371.079 168.76 366.969 169.63 362.229 169.63ZM484.38 105.82L467.91 169H449.28L439.2 127.42L428.76 169H410.13L394.11 105.82H410.58L419.67 151.81L430.92 105.82H447.84L458.64 151.81L467.82 105.82H484.38ZM534.128 157.84H510.548L506.768 169H490.658L513.518 105.82H531.338L554.198 169H537.908L534.128 157.84ZM530.168 145.96L522.338 122.83L514.598 145.96H530.168Z"/>
</mask>
<path d="M107.83 136.6L107.546 135.641L107.622 137.578L107.83 136.6ZM116.65 142.09L115.858 142.701L115.864 142.709L116.65 142.09ZM114.4 164.41L115.041 165.177L115.043 165.176L114.4 164.41ZM69.58 169H68.58V170H69.58V169ZM69.58 105.82V104.82H68.58V105.82H69.58ZM113.05 110.23L112.417 111.005L112.424 111.01L113.05 110.23ZM115.57 131.47L114.791 130.843L114.786 130.849L114.782 130.855L115.57 131.47ZM84.97 131.38H83.97V132.38H84.97V131.38ZM100.81 129.76L101.443 130.534L101.447 130.531L100.81 129.76ZM100.81 119.86L100.156 120.617L100.165 120.624L100.173 120.631L100.81 119.86ZM84.97 118.15V117.15H83.97V118.15H84.97ZM102.25 154.87L102.887 155.641L102.89 155.638L102.25 154.87ZM102.16 144.52L101.501 145.273L101.509 145.279L101.517 145.286L102.16 144.52ZM84.97 142.63V141.63H83.97V142.63H84.97ZM84.97 156.58H83.97V157.58H84.97V156.58ZM107.622 137.578C111.057 138.31 113.787 140.014 115.858 142.701L117.442 141.479C115.073 138.406 111.923 136.45 108.038 135.622L107.622 137.578ZM115.864 142.709C117.943 145.349 118.98 148.37 118.98 151.81H120.98C120.98 147.93 119.797 144.471 117.436 141.471L115.864 142.709ZM118.98 151.81C118.98 156.824 117.229 160.732 113.757 163.644L115.043 165.176C119.011 161.848 120.98 157.356 120.98 151.81H118.98ZM113.759 163.643C110.337 166.504 105.465 168 99.01 168V170C105.755 170 111.143 168.436 115.041 165.177L113.759 163.643ZM99.01 168H69.58V170H99.01V168ZM70.58 169V105.82H68.58V169H70.58ZM69.58 106.82H98.02V104.82H69.58V106.82ZM98.02 106.82C104.297 106.82 109.053 108.257 112.417 111.005L113.683 109.455C109.847 106.323 104.583 104.82 98.02 104.82V106.82ZM112.424 111.01C115.828 113.744 117.54 117.437 117.54 122.2H119.54C119.54 116.883 117.592 112.596 113.676 109.45L112.424 111.01ZM117.54 122.2C117.54 125.734 116.603 128.591 114.791 130.843L116.349 132.097C118.497 129.429 119.54 126.106 119.54 122.2H117.54ZM114.782 130.855C113.001 133.137 110.604 134.735 107.546 135.641L108.114 137.559C111.536 136.545 114.299 134.723 116.358 132.085L114.782 130.855ZM84.97 132.38H95.05V130.38H84.97V132.38ZM95.05 132.38C97.6943 132.38 99.8766 131.816 101.443 130.534L100.177 128.986C99.1034 129.864 97.4457 130.38 95.05 130.38V132.38ZM101.447 130.531C103.105 129.162 103.88 127.2 103.88 124.81H101.88C101.88 126.74 101.275 128.078 100.173 128.989L101.447 130.531ZM103.88 124.81C103.88 122.42 103.105 120.458 101.447 119.089L100.173 120.631C101.275 121.542 101.88 122.88 101.88 124.81H103.88ZM101.464 119.103C99.8959 117.749 97.7052 117.15 95.05 117.15V119.15C97.4348 119.15 99.0841 119.691 100.156 120.617L101.464 119.103ZM95.05 117.15H84.97V119.15H95.05V117.15ZM83.97 118.15V131.38H85.97V118.15H83.97ZM96.31 157.58C99.0222 157.58 101.263 156.982 102.887 155.641L101.613 154.099C100.477 155.038 98.7578 155.58 96.31 155.58V157.58ZM102.89 155.638C104.601 154.213 105.41 152.196 105.41 149.74H103.41C103.41 151.724 102.779 153.127 101.61 154.102L102.89 155.638ZM105.41 149.74C105.41 147.269 104.561 145.231 102.803 143.754L101.517 145.286C102.759 146.329 103.41 147.771 103.41 149.74H105.41ZM102.819 143.767C101.141 142.3 98.8671 141.63 96.13 141.63V143.63C98.5529 143.63 100.299 144.22 101.501 145.273L102.819 143.767ZM96.13 141.63H84.97V143.63H96.13V141.63ZM83.97 142.63V156.58H85.97V142.63H83.97ZM84.97 157.58H96.31V155.58H84.97V157.58ZM146.996 118.15V117.15H145.996V118.15H146.996ZM146.996 130.93H145.996V131.93H146.996V130.93ZM167.606 130.93H168.606V129.93H167.606V130.93ZM167.606 142.81V143.81H168.606V142.81H167.606ZM146.996 142.81V141.81H145.996V142.81H146.996ZM146.996 156.67H145.996V157.67H146.996V156.67ZM170.306 156.67H171.306V155.67H170.306V156.67ZM170.306 169V170H171.306V169H170.306ZM131.606 169H130.606V170H131.606V169ZM131.606 105.82V104.82H130.606V105.82H131.606ZM170.306 105.82H171.306V104.82H170.306V105.82ZM170.306 118.15V119.15H171.306V118.15H170.306ZM145.996 118.15V130.93H147.996V118.15H145.996ZM146.996 131.93H167.606V129.93H146.996V131.93ZM166.606 130.93V142.81H168.606V130.93H166.606ZM167.606 141.81H146.996V143.81H167.606V141.81ZM145.996 142.81V156.67H147.996V142.81H145.996ZM146.996 157.67H170.306V155.67H146.996V157.67ZM169.306 156.67V169H171.306V156.67H169.306ZM170.306 168H131.606V170H170.306V168ZM132.606 169V105.82H130.606V169H132.606ZM131.606 106.82H170.306V104.82H131.606V106.82ZM169.306 105.82V118.15H171.306V105.82H169.306ZM170.306 117.15H146.996V119.15H170.306V117.15ZM222.328 157.84L223.275 157.519L223.045 156.84H222.328V157.84ZM198.748 157.84V156.84H198.03L197.8 157.519L198.748 157.84ZM194.968 169V170H195.685L195.915 169.321L194.968 169ZM178.858 169L177.917 168.66L177.432 170H178.858V169ZM201.718 105.82V104.82H201.016L200.777 105.48L201.718 105.82ZM219.538 105.82L220.478 105.48L220.239 104.82H219.538V105.82ZM242.398 169V170H243.823L243.338 168.66L242.398 169ZM226.108 169L225.16 169.321L225.39 170H226.108V169ZM218.368 145.96V146.96H219.762L219.315 145.639L218.368 145.96ZM210.538 122.83L211.485 122.509L210.532 119.695L209.589 122.513L210.538 122.83ZM202.798 145.96L201.849 145.643L201.408 146.96H202.798V145.96ZM222.328 156.84H198.748V158.84H222.328V156.84ZM197.8 157.519L194.02 168.679L195.915 169.321L199.695 158.161L197.8 157.519ZM194.968 168H178.858V170H194.968V168ZM179.798 169.34L202.658 106.16L200.777 105.48L177.917 168.66L179.798 169.34ZM201.718 106.82H219.538V104.82H201.718V106.82ZM218.597 106.16L241.457 169.34L243.338 168.66L220.478 105.48L218.597 106.16ZM242.398 168H226.108V170H242.398V168ZM227.055 168.679L223.275 157.519L221.38 158.161L225.16 169.321L227.055 168.679ZM219.315 145.639L211.485 122.509L209.59 123.151L217.42 146.281L219.315 145.639ZM209.589 122.513L201.849 145.643L203.746 146.277L211.486 123.147L209.589 122.513ZM202.798 146.96H218.368V144.96H202.798V146.96ZM262.495 167.38L262.116 168.305L262.495 167.38ZM253.675 160.72L252.869 161.312L252.877 161.323L253.675 160.72ZM250.255 150.1V149.1H249.226L249.255 150.129L250.255 150.1ZM266.635 150.1L267.63 149.998L267.538 149.1H266.635V150.1ZM269.065 155.5L268.391 156.238L268.4 156.247L268.409 156.255L269.065 155.5ZM279.865 155.77L280.476 156.561L280.487 156.553L280.498 156.544L279.865 155.77ZM280.225 147.49L279.518 148.197L279.528 148.207L279.538 148.217L280.225 147.49ZM276.355 144.97L275.952 145.885L275.959 145.888L275.965 145.891L276.355 144.97ZM269.875 142.72L269.58 143.676L269.59 143.678L269.875 142.72ZM253.225 133.36L254.023 132.757L253.225 133.36ZM256.825 109.96L257.437 110.751L257.444 110.745L256.825 109.96ZM290.305 109.96L289.686 110.745L289.693 110.751L290.305 109.96ZM297.145 123.82V124.82H298.197L298.144 123.77L297.145 123.82ZM280.495 123.82L279.497 123.879L279.552 124.82H280.495V123.82ZM278.245 119.05L277.589 119.805L277.598 119.813L277.608 119.821L278.245 119.05ZM268.435 118.78L269.079 119.545L269.091 119.535L269.102 119.525L268.435 118.78ZM269.605 127.78L270.116 126.92L269.605 127.78ZM278.605 131.47L278.925 130.523L278.913 130.519L278.605 131.47ZM288.505 135.43L288.058 136.324L288.066 136.329L288.505 135.43ZM295.165 140.92L294.375 141.533L295.165 140.92ZM295.165 160L294.32 159.465L294.316 159.472L294.312 159.478L295.165 160ZM287.245 167.02L286.798 166.126L287.245 167.02ZM274.915 168.63C270.404 168.63 266.395 167.898 262.874 166.455L262.116 168.305C265.915 169.862 270.186 170.63 274.915 170.63V168.63ZM262.874 166.455C259.368 165.018 256.577 162.904 254.473 160.117L252.877 161.323C255.213 164.416 258.302 166.742 262.116 168.305L262.874 166.455ZM254.481 160.128C252.457 157.373 251.37 154.036 251.255 150.071L249.255 150.129C249.38 154.444 250.573 158.187 252.869 161.312L254.481 160.128ZM250.255 151.1H266.635V149.1H250.255V151.1ZM265.64 150.202C265.899 152.721 266.786 154.773 268.391 156.238L269.739 154.762C268.584 153.707 267.851 152.159 267.63 149.998L265.64 150.202ZM268.409 156.255C270.008 157.645 272.058 158.3 274.465 158.3V156.3C272.432 156.3 270.882 155.755 269.721 154.745L268.409 156.255ZM274.465 158.3C276.886 158.3 278.927 157.759 280.476 156.561L279.254 154.979C278.163 155.821 276.604 156.3 274.465 156.3V158.3ZM280.498 156.544C282.073 155.255 282.845 153.489 282.845 151.36H280.845C280.845 152.951 280.297 154.125 279.232 154.996L280.498 156.544ZM282.845 151.36C282.845 149.54 282.203 147.982 280.912 146.763L279.538 148.217C280.407 149.038 280.845 150.06 280.845 151.36H282.845ZM280.932 146.783C279.807 145.657 278.403 144.751 276.745 144.049L275.965 145.891C277.427 146.509 278.603 147.283 279.518 148.197L280.932 146.783ZM276.758 144.055C275.201 143.37 272.994 142.606 270.16 141.762L269.59 143.678C272.396 144.514 274.509 145.25 275.952 145.885L276.758 144.055ZM270.17 141.765C266.118 140.513 262.841 139.271 260.324 138.041L259.446 139.839C262.089 141.129 265.472 142.407 269.58 143.675L270.17 141.765ZM260.324 138.041C257.895 136.855 255.795 135.101 254.023 132.757L252.427 133.963C254.375 136.539 256.715 138.505 259.446 139.839L260.324 138.041ZM254.023 132.757C252.327 130.514 251.435 127.535 251.435 123.73H249.435C249.435 127.845 250.403 131.286 252.427 133.963L254.023 132.757ZM251.435 123.73C251.435 118.127 253.446 113.842 257.437 110.751L256.213 109.169C251.684 112.678 249.435 117.573 249.435 123.73H251.435ZM257.444 110.745C261.486 107.557 266.8 105.92 273.475 105.92V103.92C266.47 103.92 260.684 105.643 256.206 109.175L257.444 110.745ZM273.475 105.92C280.275 105.92 285.647 107.56 289.686 110.745L290.924 109.175C286.443 105.64 280.595 103.92 273.475 103.92V105.92ZM289.693 110.751C293.696 113.852 295.859 118.188 296.146 123.87L298.144 123.77C297.831 117.572 295.434 112.668 290.917 109.169L289.693 110.751ZM297.145 122.82H280.495V124.82H297.145V122.82ZM281.493 123.761C281.36 121.487 280.507 119.622 278.882 118.279L277.608 119.821C278.743 120.758 279.391 122.073 279.497 123.879L281.493 123.761ZM278.901 118.295C277.307 116.909 275.29 116.25 272.935 116.25V118.25C274.9 118.25 276.423 118.791 277.589 119.805L278.901 118.295ZM272.935 116.25C270.885 116.25 269.129 116.817 267.768 118.035L269.102 119.525C270.021 118.703 271.265 118.25 272.935 118.25V116.25ZM267.791 118.015C266.371 119.211 265.725 120.935 265.725 123.01H267.725C267.725 121.365 268.219 120.269 269.079 119.545L267.791 118.015ZM265.725 123.01C265.725 125.441 266.906 127.34 269.094 128.64L270.116 126.92C268.464 125.94 267.725 124.659 267.725 123.01H265.725ZM269.094 128.64C271.113 129.838 274.199 131.095 278.297 132.421L278.913 130.519C274.852 129.205 271.937 128.002 270.116 126.92L269.094 128.64ZM278.285 132.417C282.341 133.789 285.594 135.093 288.058 136.324L288.952 134.536C286.376 133.247 283.029 131.911 278.925 130.523L278.285 132.417ZM288.066 136.329C290.501 137.518 292.603 139.246 294.375 141.533L295.955 140.307C294.007 137.794 291.669 135.862 288.944 134.531L288.066 136.329ZM294.375 141.533C296.068 143.718 296.955 146.576 296.955 150.19H298.955C298.955 146.244 297.982 142.922 295.955 140.307L294.375 141.533ZM296.955 150.19C296.955 153.608 296.075 156.691 294.32 159.465L296.01 160.535C297.975 157.429 298.955 153.972 298.955 150.19H296.955ZM294.312 159.478C292.622 162.238 290.133 164.458 286.798 166.126L287.692 167.914C291.317 166.102 294.108 163.642 296.018 160.522L294.312 159.478ZM286.798 166.126C283.484 167.783 279.533 168.63 274.915 168.63V170.63C279.777 170.63 284.046 169.737 287.692 167.914L286.798 166.126ZM325.516 105.82H326.516V104.82H325.516V105.82ZM325.516 169V170H326.516V169H325.516ZM310.126 169H309.126V170H310.126V169ZM310.126 105.82V104.82H309.126V105.82H310.126ZM324.516 105.82V169H326.516V105.82H324.516ZM325.516 168H310.126V170H325.516V168ZM311.126 169V105.82H309.126V169H311.126ZM310.126 106.82H325.516V104.82H310.126V106.82ZM349.809 167.38L349.43 168.305L349.809 167.38ZM340.989 160.72L340.183 161.312L340.191 161.323L340.989 160.72ZM337.569 150.1V149.1H336.54L336.569 150.129L337.569 150.1ZM353.949 150.1L354.944 149.998L354.852 149.1H353.949V150.1ZM356.379 155.5L355.705 156.238L355.714 156.247L355.723 156.255L356.379 155.5ZM367.179 155.77L367.79 156.561L367.802 156.553L367.812 156.544L367.179 155.77ZM367.539 147.49L366.832 148.197L366.842 148.207L366.852 148.217L367.539 147.49ZM363.669 144.97L363.266 145.885L363.273 145.888L363.279 145.891L363.669 144.97ZM357.189 142.72L356.894 143.676L356.904 143.678L357.189 142.72ZM340.539 133.36L341.337 132.757L340.539 133.36ZM344.139 109.96L344.751 110.751L344.758 110.745L344.139 109.96ZM377.619 109.96L377 110.745L377.007 110.751L377.619 109.96ZM384.459 123.82V124.82H385.511L385.458 123.77L384.459 123.82ZM367.809 123.82L366.811 123.879L366.866 124.82H367.809V123.82ZM365.559 119.05L364.903 119.805L364.912 119.813L364.922 119.821L365.559 119.05ZM355.749 118.78L356.393 119.545L356.405 119.535L356.416 119.525L355.749 118.78ZM356.919 127.78L357.43 126.92L356.919 127.78ZM365.919 131.47L366.24 130.523L366.227 130.519L365.919 131.47ZM375.819 135.43L375.372 136.324L375.38 136.329L375.819 135.43ZM382.479 140.92L381.689 141.533L382.479 140.92ZM382.479 160L381.634 159.465L381.63 159.472L381.626 159.478L382.479 160ZM374.559 167.02L374.112 166.126L374.559 167.02ZM362.229 168.63C357.718 168.63 353.71 167.898 350.188 166.455L349.43 168.305C353.229 169.862 357.501 170.63 362.229 170.63V168.63ZM350.188 166.455C346.682 165.018 343.891 162.904 341.787 160.117L340.191 161.323C342.527 164.416 345.616 166.742 349.43 168.305L350.188 166.455ZM341.795 160.128C339.771 157.373 338.684 154.036 338.569 150.071L336.569 150.129C336.695 154.444 337.887 158.187 340.183 161.312L341.795 160.128ZM337.569 151.1H353.949V149.1H337.569V151.1ZM352.954 150.202C353.213 152.721 354.1 154.773 355.705 156.238L357.053 154.762C355.898 153.707 355.165 152.159 354.944 149.998L352.954 150.202ZM355.723 156.255C357.322 157.645 359.372 158.3 361.779 158.3V156.3C359.746 156.3 358.196 155.755 357.035 154.745L355.723 156.255ZM361.779 158.3C364.2 158.3 366.241 157.759 367.79 156.561L366.568 154.979C365.477 155.821 363.918 156.3 361.779 156.3V158.3ZM367.812 156.544C369.387 155.255 370.159 153.489 370.159 151.36H368.159C368.159 152.951 367.611 154.125 366.546 154.996L367.812 156.544ZM370.159 151.36C370.159 149.54 369.517 147.982 368.226 146.763L366.852 148.217C367.721 149.038 368.159 150.06 368.159 151.36H370.159ZM368.246 146.783C367.121 145.657 365.717 144.751 364.059 144.049L363.279 145.891C364.741 146.509 365.917 147.283 366.832 148.197L368.246 146.783ZM364.072 144.055C362.515 143.37 360.308 142.606 357.475 141.762L356.904 143.678C359.71 144.514 361.823 145.25 363.266 145.885L364.072 144.055ZM357.484 141.765C353.432 140.513 350.155 139.271 347.638 138.041L346.76 139.839C349.403 141.129 352.786 142.407 356.894 143.675L357.484 141.765ZM347.638 138.041C345.209 136.855 343.109 135.101 341.337 132.757L339.741 133.963C341.689 136.539 344.029 138.505 346.76 139.839L347.638 138.041ZM341.337 132.757C339.641 130.514 338.749 127.535 338.749 123.73H336.749C336.749 127.845 337.717 131.286 339.741 133.963L341.337 132.757ZM338.749 123.73C338.749 118.127 340.76 113.842 344.751 110.751L343.527 109.169C338.998 112.678 336.749 117.573 336.749 123.73H338.749ZM344.758 110.745C348.8 107.557 354.114 105.92 360.789 105.92V103.92C353.784 103.92 347.998 105.643 343.52 109.175L344.758 110.745ZM360.789 105.92C367.589 105.92 372.961 107.56 377 110.745L378.238 109.175C373.757 105.64 367.909 103.92 360.789 103.92V105.92ZM377.007 110.751C381.011 113.852 383.173 118.188 383.46 123.87L385.458 123.77C385.145 117.572 382.748 112.668 378.231 109.169L377.007 110.751ZM384.459 122.82H367.809V124.82H384.459V122.82ZM368.807 123.761C368.674 121.487 367.821 119.622 366.196 118.279L364.922 119.821C366.057 120.758 366.705 122.073 366.811 123.879L368.807 123.761ZM366.215 118.295C364.621 116.909 362.604 116.25 360.249 116.25V118.25C362.214 118.25 363.737 118.791 364.903 119.805L366.215 118.295ZM360.249 116.25C358.199 116.25 356.443 116.817 355.082 118.035L356.416 119.525C357.335 118.703 358.579 118.25 360.249 118.25V116.25ZM355.105 118.015C353.685 119.211 353.039 120.935 353.039 123.01H355.039C355.039 121.365 355.533 120.269 356.393 119.545L355.105 118.015ZM353.039 123.01C353.039 125.441 354.22 127.34 356.409 128.64L357.43 126.92C355.778 125.94 355.039 124.659 355.039 123.01H353.039ZM356.409 128.64C358.427 129.838 361.513 131.095 365.611 132.421L366.227 130.519C362.166 129.205 359.251 128.002 357.43 126.92L356.409 128.64ZM365.599 132.417C369.655 133.789 372.908 135.093 375.372 136.324L376.266 134.536C373.69 133.247 370.343 131.911 366.239 130.523L365.599 132.417ZM375.38 136.329C377.815 137.518 379.917 139.246 381.689 141.533L383.269 140.307C381.321 137.794 378.983 135.862 376.258 134.531L375.38 136.329ZM381.689 141.533C383.382 143.718 384.269 146.576 384.269 150.19H386.269C386.269 146.244 385.296 142.922 383.269 140.307L381.689 141.533ZM384.269 150.19C384.269 153.608 383.389 156.691 381.634 159.465L383.324 160.535C385.289 157.429 386.269 153.972 386.269 150.19H384.269ZM381.626 159.478C379.936 162.238 377.447 164.458 374.112 166.126L375.006 167.914C378.632 166.102 381.422 163.642 383.332 160.522L381.626 159.478ZM374.112 166.126C370.798 167.783 366.847 168.63 362.229 168.63V170.63C367.091 170.63 371.36 169.737 375.006 167.914L374.112 166.126ZM484.38 105.82L485.348 106.072L485.674 104.82H484.38V105.82ZM467.91 169V170H468.683L468.878 169.252L467.91 169ZM449.28 169L448.308 169.236L448.494 170H449.28V169ZM439.2 127.42L440.172 127.184L438.23 127.176L439.2 127.42ZM428.76 169V170H429.54L429.73 169.244L428.76 169ZM410.13 169L409.161 169.246L409.352 170H410.13V169ZM394.11 105.82V104.82H392.825L393.141 106.066L394.11 105.82ZM410.58 105.82L411.561 105.626L411.402 104.82H410.58V105.82ZM419.67 151.81L418.689 152.004L420.642 152.048L419.67 151.81ZM430.92 105.82V104.82H430.135L429.949 105.582L430.92 105.82ZM447.84 105.82L448.814 105.591L448.633 104.82H447.84V105.82ZM458.64 151.81L457.667 152.039L459.621 152.006L458.64 151.81ZM467.82 105.82V104.82H467L466.84 105.624L467.82 105.82ZM483.413 105.568L466.943 168.748L468.878 169.252L485.348 106.072L483.413 105.568ZM467.91 168H449.28V170H467.91V168ZM450.252 168.764L440.172 127.184L438.228 127.656L448.308 169.236L450.252 168.764ZM438.23 127.176L427.79 168.756L429.73 169.244L440.17 127.664L438.23 127.176ZM428.76 168H410.13V170H428.76V168ZM411.099 168.754L395.079 105.574L393.141 106.066L409.161 169.246L411.099 168.754ZM394.11 106.82H410.58V104.82H394.11V106.82ZM409.599 106.014L418.689 152.004L420.651 151.616L411.561 105.626L409.599 106.014ZM420.642 152.048L431.892 106.058L429.949 105.582L418.699 151.572L420.642 152.048ZM430.92 106.82H447.84V104.82H430.92V106.82ZM446.867 106.049L457.667 152.039L459.614 151.581L448.814 105.591L446.867 106.049ZM459.621 152.006L468.801 106.016L466.84 105.624L457.66 151.614L459.621 152.006ZM467.82 106.82H484.38V104.82H467.82V106.82ZM534.128 157.84L535.076 157.519L534.845 156.84H534.128V157.84ZM510.548 157.84V156.84H509.831L509.601 157.519L510.548 157.84ZM506.768 169V170H507.485L507.715 169.321L506.768 169ZM490.658 169L489.718 168.66L489.233 170H490.658V169ZM513.518 105.82V104.82H512.817L512.578 105.48L513.518 105.82ZM531.338 105.82L532.279 105.48L532.04 104.82H531.338V105.82ZM554.198 169V170H555.624L555.139 168.66L554.198 169ZM537.908 169L536.961 169.321L537.191 170H537.908V169ZM530.168 145.96V146.96H531.563L531.116 145.639L530.168 145.96ZM522.338 122.83L523.286 122.509L522.333 119.695L521.39 122.513L522.338 122.83ZM514.598 145.96L513.65 145.643L513.209 146.96H514.598V145.96ZM534.128 156.84H510.548V158.84H534.128V156.84ZM509.601 157.519L505.821 168.679L507.715 169.321L511.496 158.161L509.601 157.519ZM506.768 168H490.658V170H506.768V168ZM491.599 169.34L514.459 106.16L512.578 105.48L489.718 168.66L491.599 169.34ZM513.518 106.82H531.338V104.82H513.518V106.82ZM530.398 106.16L553.258 169.34L555.139 168.66L532.279 105.48L530.398 106.16ZM554.198 168H537.908V170H554.198V168ZM538.855 168.679L535.076 157.519L533.181 158.161L536.961 169.321L538.855 168.679ZM531.116 145.639L523.286 122.509L521.391 123.151L529.221 146.281L531.116 145.639ZM521.39 122.513L513.65 145.643L515.547 146.277L523.287 123.147L521.39 122.513ZM514.598 146.96H530.168V144.96H514.598V146.96Z" fill="#F4F5FE" mask="url(#path-4-outside-2_1425_1791)"/>
</g>
<line x1="1" y1="-1" x2="116.875" y2="-1" transform="matrix(-0.806857 0.590746 -0.806857 -0.590746 138.347 0)" stroke="white" stroke-width="2" stroke-linecap="round"/>
<line x1="1" y1="-1" x2="90.4098" y2="-1" transform="matrix(-0.806857 0.590746 -0.806857 -0.590746 73.7546 31.1201)" stroke="white" stroke-width="2" stroke-linecap="round"/>
<defs>
<clipPath id="clip0_1425_1791">
<rect width="497.161" height="37" fill="white" transform="translate(63.8387 114)"/>
</clipPath>
<clipPath id="clip1_1425_1791">
<rect width="497.161" height="21" fill="white" transform="translate(63.8387 153)"/>
</clipPath>
</defs>
</svg>
