<svg width="561" height="174" viewBox="0 0 561 174" fill="none" xmlns="http://www.w3.org/2000/svg">
<path d="M156.359 48.82L139.889 112H121.259L111.179 70.42L100.739 112H82.1087L66.0887 48.82H82.5587L91.6487 94.81L102.899 48.82H119.819L130.619 94.81L139.799 48.82H156.359ZM182.167 61.15V73.93H202.777V85.81H182.167V99.67H205.477V112H166.777V48.82H205.477V61.15H182.167ZM233.558 100.12H253.718V112H218.168V48.82H233.558V100.12ZM261.149 80.32C261.149 74.08 262.499 68.53 265.199 63.67C267.899 58.75 271.649 54.94 276.449 52.24C281.309 49.48 286.799 48.1 292.919 48.1C300.419 48.1 306.839 50.08 312.179 54.04C317.519 58 321.089 63.4 322.889 70.24H305.969C304.709 67.6 302.909 65.59 300.569 64.21C298.289 62.83 295.679 62.14 292.739 62.14C287.999 62.14 284.159 63.79 281.219 67.09C278.279 70.39 276.809 74.8 276.809 80.32C276.809 85.84 278.279 90.25 281.219 93.55C284.159 96.85 287.999 98.5 292.739 98.5C295.679 98.5 298.289 97.81 300.569 96.43C302.909 95.05 304.709 93.04 305.969 90.4H322.889C321.089 97.24 317.519 102.64 312.179 106.6C306.839 110.5 300.419 112.45 292.919 112.45C286.799 112.45 281.309 111.1 276.449 108.4C271.649 105.64 267.899 101.83 265.199 96.97C262.499 92.11 261.149 86.56 261.149 80.32ZM364.894 112.63C358.954 112.63 353.494 111.25 348.514 108.49C343.594 105.73 339.664 101.89 336.724 96.97C333.844 91.99 332.404 86.41 332.404 80.23C332.404 74.05 333.844 68.5 336.724 63.58C339.664 58.66 343.594 54.82 348.514 52.06C353.494 49.3 358.954 47.92 364.894 47.92C370.834 47.92 376.264 49.3 381.184 52.06C386.164 54.82 390.064 58.66 392.884 63.58C395.764 68.5 397.204 74.05 397.204 80.23C397.204 86.41 395.764 91.99 392.884 96.97C390.004 101.89 386.104 105.73 381.184 108.49C376.264 111.25 370.834 112.63 364.894 112.63ZM364.894 98.59C369.934 98.59 373.954 96.91 376.954 93.55C380.014 90.19 381.544 85.75 381.544 80.23C381.544 74.65 380.014 70.21 376.954 66.91C373.954 63.55 369.934 61.87 364.894 61.87C359.794 61.87 355.714 63.52 352.654 66.82C349.654 70.12 348.154 74.59 348.154 80.23C348.154 85.81 349.654 90.28 352.654 93.64C355.714 96.94 359.794 98.59 364.894 98.59ZM480.016 48.82V112H464.626V74.11L450.496 112H438.076L423.856 74.02V112H408.466V48.82H426.646L444.376 92.56L461.926 48.82H480.016ZM509.173 61.15V73.93H529.783V85.81H509.173V99.67H532.483V112H493.783V48.82H532.483V61.15H509.173Z" fill="#F6F7FF"/>
<g clip-path="url(#clip0_1437_1619)">
<mask id="path-2-outside-1_1437_1619" maskUnits="userSpaceOnUse" x="64" y="80" width="470" height="68" fill="black">
<rect fill="white" x="64" y="80" width="470" height="68"/>
<path d="M156.52 82.82L140.05 146H121.42L111.34 104.42L100.9 146H82.27L66.25 82.82H82.72L91.81 128.81L103.06 82.82H119.98L130.78 128.81L139.96 82.82H156.52ZM182.328 95.15V107.93H202.938V119.81H182.328V133.67H205.638V146H166.938V82.82H205.638V95.15H182.328ZM233.72 134.12H253.88V146H218.33V82.82H233.72V134.12ZM261.31 114.32C261.31 108.08 262.66 102.53 265.36 97.67C268.06 92.75 271.81 88.94 276.61 86.24C281.47 83.48 286.96 82.1 293.08 82.1C300.58 82.1 307 84.08 312.34 88.04C317.68 92 321.25 97.4 323.05 104.24H306.13C304.87 101.6 303.07 99.59 300.73 98.21C298.45 96.83 295.84 96.14 292.9 96.14C288.16 96.14 284.32 97.79 281.38 101.09C278.44 104.39 276.97 108.8 276.97 114.32C276.97 119.84 278.44 124.25 281.38 127.55C284.32 130.85 288.16 132.5 292.9 132.5C295.84 132.5 298.45 131.81 300.73 130.43C303.07 129.05 304.87 127.04 306.13 124.4H323.05C321.25 131.24 317.68 136.64 312.34 140.6C307 144.5 300.58 146.45 293.08 146.45C286.96 146.45 281.47 145.1 276.61 142.4C271.81 139.64 268.06 135.83 265.36 130.97C262.66 126.11 261.31 120.56 261.31 114.32ZM365.055 146.63C359.115 146.63 353.655 145.25 348.675 142.49C343.755 139.73 339.825 135.89 336.885 130.97C334.005 125.99 332.565 120.41 332.565 114.23C332.565 108.05 334.005 102.5 336.885 97.58C339.825 92.66 343.755 88.82 348.675 86.06C353.655 83.3 359.115 81.92 365.055 81.92C370.995 81.92 376.425 83.3 381.345 86.06C386.325 88.82 390.225 92.66 393.045 97.58C395.925 102.5 397.365 108.05 397.365 114.23C397.365 120.41 395.925 125.99 393.045 130.97C390.165 135.89 386.265 139.73 381.345 142.49C376.425 145.25 370.995 146.63 365.055 146.63ZM365.055 132.59C370.095 132.59 374.115 130.91 377.115 127.55C380.175 124.19 381.705 119.75 381.705 114.23C381.705 108.65 380.175 104.21 377.115 100.91C374.115 97.55 370.095 95.87 365.055 95.87C359.955 95.87 355.875 97.52 352.815 100.82C349.815 104.12 348.315 108.59 348.315 114.23C348.315 119.81 349.815 124.28 352.815 127.64C355.875 130.94 359.955 132.59 365.055 132.59ZM480.177 82.82V146H464.787V108.11L450.657 146H438.237L424.017 108.02V146H408.627V82.82H426.807L444.537 126.56L462.087 82.82H480.177ZM509.334 95.15V107.93H529.944V119.81H509.334V133.67H532.644V146H493.944V82.82H532.644V95.15H509.334Z"/>
</mask>
<path d="M156.52 82.82L157.488 83.0723L157.814 81.82H156.52V82.82ZM140.05 146V147H140.823L141.018 146.252L140.05 146ZM121.42 146L120.448 146.236L120.633 147H121.42V146ZM111.34 104.42L112.312 104.184L110.37 104.176L111.34 104.42ZM100.9 146V147H101.68L101.87 146.244L100.9 146ZM82.27 146L81.3007 146.246L81.4919 147H82.27V146ZM66.25 82.82V81.82H64.9648L65.2807 83.0658L66.25 82.82ZM82.72 82.82L83.701 82.6261L83.5417 81.82H82.72V82.82ZM91.81 128.81L90.829 129.004L92.7814 129.048L91.81 128.81ZM103.06 82.82V81.82H102.275L102.089 82.5824L103.06 82.82ZM119.98 82.82L120.954 82.5914L120.772 81.82H119.98V82.82ZM130.78 128.81L129.806 129.039L131.761 129.006L130.78 128.81ZM139.96 82.82V81.82H139.14L138.979 82.6243L139.96 82.82ZM155.552 82.5677L139.082 145.748L141.018 146.252L157.488 83.0723L155.552 82.5677ZM140.05 145H121.42V147H140.05V145ZM122.392 145.764L112.312 104.184L110.368 104.656L120.448 146.236L122.392 145.764ZM110.37 104.176L99.9301 145.756L101.87 146.244L112.31 104.664L110.37 104.176ZM100.9 145H82.27V147H100.9V145ZM83.2393 145.754L67.2193 82.5742L65.2807 83.0658L81.3007 146.246L83.2393 145.754ZM66.25 83.82H82.72V81.82H66.25V83.82ZM81.739 83.0139L90.829 129.004L92.791 128.616L83.701 82.6261L81.739 83.0139ZM92.7814 129.048L104.031 83.0576L102.089 82.5824L90.8386 128.572L92.7814 129.048ZM103.06 83.82H119.98V81.82H103.06V83.82ZM119.006 83.0486L129.806 129.039L131.754 128.581L120.954 82.5914L119.006 83.0486ZM131.761 129.006L140.941 83.0157L138.979 82.6243L129.799 128.614L131.761 129.006ZM139.96 83.82H156.52V81.82H139.96V83.82ZM182.328 95.15V94.15H181.328V95.15H182.328ZM182.328 107.93H181.328V108.93H182.328V107.93ZM202.938 107.93H203.938V106.93H202.938V107.93ZM202.938 119.81V120.81H203.938V119.81H202.938ZM182.328 119.81V118.81H181.328V119.81H182.328ZM182.328 133.67H181.328V134.67H182.328V133.67ZM205.638 133.67H206.638V132.67H205.638V133.67ZM205.638 146V147H206.638V146H205.638ZM166.938 146H165.938V147H166.938V146ZM166.938 82.82V81.82H165.938V82.82H166.938ZM205.638 82.82H206.638V81.82H205.638V82.82ZM205.638 95.15V96.15H206.638V95.15H205.638ZM181.328 95.15V107.93H183.328V95.15H181.328ZM182.328 108.93H202.938V106.93H182.328V108.93ZM201.938 107.93V119.81H203.938V107.93H201.938ZM202.938 118.81H182.328V120.81H202.938V118.81ZM181.328 119.81V133.67H183.328V119.81H181.328ZM182.328 134.67H205.638V132.67H182.328V134.67ZM204.638 133.67V146H206.638V133.67H204.638ZM205.638 145H166.938V147H205.638V145ZM167.938 146V82.82H165.938V146H167.938ZM166.938 83.82H205.638V81.82H166.938V83.82ZM204.638 82.82V95.15H206.638V82.82H204.638ZM205.638 94.15H182.328V96.15H205.638V94.15ZM233.72 134.12H232.72V135.12H233.72V134.12ZM253.88 134.12H254.88V133.12H253.88V134.12ZM253.88 146V147H254.88V146H253.88ZM218.33 146H217.33V147H218.33V146ZM218.33 82.82V81.82H217.33V82.82H218.33ZM233.72 82.82H234.72V81.82H233.72V82.82ZM233.72 135.12H253.88V133.12H233.72V135.12ZM252.88 134.12V146H254.88V134.12H252.88ZM253.88 145H218.33V147H253.88V145ZM219.33 146V82.82H217.33V146H219.33ZM218.33 83.82H233.72V81.82H218.33V83.82ZM232.72 82.82V134.12H234.72V82.82H232.72ZM265.36 97.67L266.234 98.1556L266.237 98.1511L265.36 97.67ZM276.61 86.24L277.101 87.1116L277.104 87.1096L276.61 86.24ZM312.34 88.04L312.936 87.2368L312.936 87.2368L312.34 88.04ZM323.05 104.24V105.24H324.347L324.017 103.986L323.05 104.24ZM306.13 104.24L305.228 104.671L305.499 105.24H306.13V104.24ZM300.73 98.21L300.212 99.0656L300.222 99.0714L300.73 98.21ZM281.38 101.09L282.127 101.755L282.127 101.755L281.38 101.09ZM300.73 130.43L300.222 129.569L300.212 129.574L300.73 130.43ZM306.13 124.4V123.4H305.499L305.228 123.969L306.13 124.4ZM323.05 124.4L324.017 124.654L324.347 123.4H323.05V124.4ZM312.34 140.6L312.93 141.408L312.936 141.403L312.34 140.6ZM276.61 142.4L276.112 143.267L276.118 143.271L276.125 143.274L276.61 142.4ZM265.36 130.97L266.234 130.484L266.234 130.484L265.36 130.97ZM262.31 114.32C262.31 108.229 263.627 102.85 266.234 98.1556L264.486 97.1844C261.694 102.21 260.31 107.931 260.31 114.32H262.31ZM266.237 98.1511C268.849 93.3915 272.466 89.7182 277.101 87.1116L276.12 85.3684C271.154 88.1618 267.272 92.1085 264.484 97.1889L266.237 98.1511ZM277.104 87.1096C281.799 84.443 287.116 83.1 293.08 83.1V81.1C286.804 81.1 281.141 82.517 276.116 85.3704L277.104 87.1096ZM293.08 83.1C300.394 83.1 306.599 85.0271 311.745 88.8432L312.936 87.2368C307.402 83.1328 300.766 81.1 293.08 81.1V83.1ZM311.745 88.8432C316.89 92.6588 320.337 97.8592 322.083 104.494L324.017 103.986C322.163 96.9408 318.471 91.3412 312.936 87.2368L311.745 88.8432ZM323.05 103.24H306.13V105.24H323.05V103.24ZM307.033 103.809C305.694 101.004 303.763 98.8376 301.238 97.3486L300.222 99.0714C302.378 100.342 304.047 102.196 305.228 104.671L307.033 103.809ZM301.248 97.3545C298.796 95.8704 296.003 95.14 292.9 95.14V97.14C295.677 97.14 298.104 97.7896 300.212 99.0655L301.248 97.3545ZM292.9 95.14C287.898 95.14 283.778 96.895 280.634 100.425L282.127 101.755C284.862 98.685 288.422 97.14 292.9 97.14V95.14ZM280.634 100.425C277.493 103.95 275.97 108.618 275.97 114.32H277.97C277.97 108.982 279.388 104.83 282.127 101.755L280.634 100.425ZM275.97 114.32C275.97 120.022 277.493 124.69 280.634 128.215L282.127 126.885C279.388 123.81 277.97 119.658 277.97 114.32H275.97ZM280.634 128.215C283.778 131.745 287.898 133.5 292.9 133.5V131.5C288.422 131.5 284.862 129.955 282.127 126.885L280.634 128.215ZM292.9 133.5C296.003 133.5 298.796 132.77 301.248 131.285L300.212 129.574C298.104 130.85 295.677 131.5 292.9 131.5V133.5ZM301.238 131.291C303.763 129.802 305.694 127.636 307.033 124.831L305.228 123.969C304.047 126.444 302.378 128.298 300.222 129.569L301.238 131.291ZM306.13 125.4H323.05V123.4H306.13V125.4ZM322.083 124.146C320.337 130.781 316.89 135.981 311.745 139.797L312.936 141.403C318.471 137.299 322.163 131.699 324.017 124.654L322.083 124.146ZM311.75 139.792C306.604 143.551 300.398 145.45 293.08 145.45V147.45C300.763 147.45 307.396 145.449 312.93 141.408L311.75 139.792ZM293.08 145.45C287.113 145.45 281.793 144.135 277.096 141.526L276.125 143.274C281.148 146.065 286.808 147.45 293.08 147.45V145.45ZM277.109 141.533C272.467 138.864 268.847 135.186 266.234 130.484L264.486 131.456C267.274 136.474 271.154 140.416 276.112 143.267L277.109 141.533ZM266.234 130.484C263.627 125.79 262.31 120.411 262.31 114.32H260.31C260.31 120.709 261.694 126.43 264.486 131.456L266.234 130.484ZM348.675 142.49L348.186 143.362L348.19 143.365L348.675 142.49ZM336.885 130.97L336.019 131.471L336.023 131.477L336.026 131.483L336.885 130.97ZM336.885 97.58L336.026 97.067L336.022 97.0748L336.885 97.58ZM348.675 86.06L348.19 85.1853L348.186 85.1879L348.675 86.06ZM381.345 86.06L380.856 86.9322L380.86 86.9347L381.345 86.06ZM393.045 97.58L392.177 98.0773L392.182 98.0852L393.045 97.58ZM393.045 130.97L393.908 131.475L393.911 131.471L393.045 130.97ZM381.345 142.49L381.834 143.362L381.834 143.362L381.345 142.49ZM377.115 127.55L376.376 126.877L376.369 126.884L377.115 127.55ZM377.115 100.91L376.369 101.576L376.375 101.583L376.382 101.59L377.115 100.91ZM352.815 100.82L352.082 100.14L352.075 100.147L352.815 100.82ZM352.815 127.64L352.069 128.306L352.075 128.313L352.082 128.32L352.815 127.64ZM365.055 145.63C359.277 145.63 353.985 144.29 349.16 141.615L348.19 143.365C353.325 146.21 358.953 147.63 365.055 147.63V145.63ZM349.164 141.618C344.399 138.945 340.595 135.23 337.743 130.457L336.026 131.483C339.055 136.55 343.111 140.515 348.186 143.362L349.164 141.618ZM337.751 130.469C334.965 125.653 333.565 120.248 333.565 114.23H331.565C331.565 120.572 333.045 126.327 336.019 131.471L337.751 130.469ZM333.565 114.23C333.565 108.212 334.965 102.839 337.748 98.0852L336.022 97.0748C333.045 102.161 331.565 107.888 331.565 114.23H333.565ZM337.743 98.093C340.595 93.3203 344.399 89.6053 349.164 86.9321L348.186 85.1879C343.111 88.0347 339.055 91.9996 336.026 97.067L337.743 98.093ZM349.16 86.9347C353.985 84.2605 359.277 82.92 365.055 82.92V80.92C358.953 80.92 353.325 82.3395 348.19 85.1853L349.16 86.9347ZM365.055 82.92C370.833 82.92 376.093 84.2605 380.856 86.9321L381.834 85.1879C376.757 82.3395 371.157 80.92 365.055 80.92V82.92ZM380.86 86.9347C385.681 89.6065 389.448 93.3163 392.177 98.0773L393.913 97.0827C391.001 92.0037 386.969 88.0335 381.83 85.1853L380.86 86.9347ZM392.182 98.0852C394.965 102.839 396.365 108.212 396.365 114.23H398.365C398.365 107.888 396.885 102.161 393.908 97.0748L392.182 98.0852ZM396.365 114.23C396.365 120.248 394.965 125.653 392.179 130.469L393.911 131.471C396.885 126.327 398.365 120.572 398.365 114.23H396.365ZM392.182 130.465C389.391 135.233 385.619 138.946 380.856 141.618L381.834 143.362C386.911 140.514 390.939 136.547 393.908 131.475L392.182 130.465ZM380.856 141.618C376.093 144.29 370.833 145.63 365.055 145.63V147.63C371.157 147.63 376.757 146.21 381.834 143.362L380.856 141.618ZM365.055 133.59C370.342 133.59 374.647 131.815 377.861 128.216L376.369 126.884C373.582 130.005 369.848 131.59 365.055 131.59V133.59ZM377.854 128.223C381.116 124.641 382.705 119.943 382.705 114.23H380.705C380.705 119.557 379.234 123.739 376.376 126.877L377.854 128.223ZM382.705 114.23C382.705 108.461 381.118 103.757 377.848 100.23L376.382 101.59C379.231 104.663 380.705 108.839 380.705 114.23H382.705ZM377.861 100.244C374.647 96.6449 370.342 94.87 365.055 94.87V96.87C369.848 96.87 373.582 98.4551 376.369 101.576L377.861 100.244ZM365.055 94.87C359.717 94.87 355.357 96.6078 352.082 100.14L353.548 101.5C356.393 98.4322 360.192 96.87 365.055 96.87V94.87ZM352.075 100.147C348.867 103.676 347.315 108.41 347.315 114.23H349.315C349.315 108.77 350.763 104.564 353.555 101.493L352.075 100.147ZM347.315 114.23C347.315 119.995 348.869 124.722 352.069 128.306L353.561 126.974C350.761 123.838 349.315 119.625 349.315 114.23H347.315ZM352.082 128.32C355.357 131.852 359.717 133.59 365.055 133.59V131.59C360.192 131.59 356.393 130.028 353.548 126.96L352.082 128.32ZM480.177 82.82H481.177V81.82H480.177V82.82ZM480.177 146V147H481.177V146H480.177ZM464.787 146H463.787V147H464.787V146ZM464.787 108.11H465.787L463.85 107.761L464.787 108.11ZM450.657 146V147H451.351L451.594 146.349L450.657 146ZM438.237 146L437.3 146.351L437.543 147H438.237V146ZM424.017 108.02L424.953 107.669L423.017 108.02H424.017ZM424.017 146V147H425.017V146H424.017ZM408.627 146H407.627V147H408.627V146ZM408.627 82.82V81.82H407.627V82.82H408.627ZM426.807 82.82L427.734 82.4443L427.481 81.82H426.807V82.82ZM444.537 126.56L443.61 126.936L444.542 129.234L445.465 126.932L444.537 126.56ZM462.087 82.82V81.82H461.411L461.159 82.4476L462.087 82.82ZM479.177 82.82V146H481.177V82.82H479.177ZM480.177 145H464.787V147H480.177V145ZM465.787 146V108.11H463.787V146H465.787ZM463.85 107.761L449.72 145.651L451.594 146.349L465.724 108.459L463.85 107.761ZM450.657 145H438.237V147H450.657V145ZM439.173 145.649L424.953 107.669L423.08 108.371L437.3 146.351L439.173 145.649ZM423.017 108.02V146H425.017V108.02H423.017ZM424.017 145H408.627V147H424.017V145ZM409.627 146V82.82H407.627V146H409.627ZM408.627 83.82H426.807V81.82H408.627V83.82ZM425.88 83.1957L443.61 126.936L445.464 126.184L427.734 82.4443L425.88 83.1957ZM445.465 126.932L463.015 83.1924L461.159 82.4476L443.609 126.188L445.465 126.932ZM462.087 83.82H480.177V81.82H462.087V83.82ZM509.334 95.15V94.15H508.334V95.15H509.334ZM509.334 107.93H508.334V108.93H509.334V107.93ZM529.944 107.93H530.944V106.93H529.944V107.93ZM529.944 119.81V120.81H530.944V119.81H529.944ZM509.334 119.81V118.81H508.334V119.81H509.334ZM509.334 133.67H508.334V134.67H509.334V133.67ZM532.644 133.67H533.644V132.67H532.644V133.67ZM532.644 146V147H533.644V146H532.644ZM493.944 146H492.944V147H493.944V146ZM493.944 82.82V81.82H492.944V82.82H493.944ZM532.644 82.82H533.644V81.82H532.644V82.82ZM532.644 95.15V96.15H533.644V95.15H532.644ZM508.334 95.15V107.93H510.334V95.15H508.334ZM509.334 108.93H529.944V106.93H509.334V108.93ZM528.944 107.93V119.81H530.944V107.93H528.944ZM529.944 118.81H509.334V120.81H529.944V118.81ZM508.334 119.81V133.67H510.334V119.81H508.334ZM509.334 134.67H532.644V132.67H509.334V134.67ZM531.644 133.67V146H533.644V133.67H531.644ZM532.644 145H493.944V147H532.644V145ZM494.944 146V82.82H492.944V146H494.944ZM493.944 83.82H532.644V81.82H493.944V83.82ZM531.644 82.82V95.15H533.644V82.82H531.644ZM532.644 94.15H509.334V96.15H532.644V94.15Z" fill="#F4F5FE" mask="url(#path-2-outside-1_1437_1619)"/>
</g>
<g clip-path="url(#clip1_1437_1619)">
<mask id="path-4-outside-2_1437_1619" maskUnits="userSpaceOnUse" x="64" y="103" width="470" height="68" fill="black">
<rect fill="white" x="64" y="103" width="470" height="68"/>
<path d="M156.52 105.82L140.05 169H121.42L111.34 127.42L100.9 169H82.27L66.25 105.82H82.72L91.81 151.81L103.06 105.82H119.98L130.78 151.81L139.96 105.82H156.52ZM182.328 118.15V130.93H202.938V142.81H182.328V156.67H205.638V169H166.938V105.82H205.638V118.15H182.328ZM233.72 157.12H253.88V169H218.33V105.82H233.72V157.12ZM261.31 137.32C261.31 131.08 262.66 125.53 265.36 120.67C268.06 115.75 271.81 111.94 276.61 109.24C281.47 106.48 286.96 105.1 293.08 105.1C300.58 105.1 307 107.08 312.34 111.04C317.68 115 321.25 120.4 323.05 127.24H306.13C304.87 124.6 303.07 122.59 300.73 121.21C298.45 119.83 295.84 119.14 292.9 119.14C288.16 119.14 284.32 120.79 281.38 124.09C278.44 127.39 276.97 131.8 276.97 137.32C276.97 142.84 278.44 147.25 281.38 150.55C284.32 153.85 288.16 155.5 292.9 155.5C295.84 155.5 298.45 154.81 300.73 153.43C303.07 152.05 304.87 150.04 306.13 147.4H323.05C321.25 154.24 317.68 159.64 312.34 163.6C307 167.5 300.58 169.45 293.08 169.45C286.96 169.45 281.47 168.1 276.61 165.4C271.81 162.64 268.06 158.83 265.36 153.97C262.66 149.11 261.31 143.56 261.31 137.32ZM365.055 169.63C359.115 169.63 353.655 168.25 348.675 165.49C343.755 162.73 339.825 158.89 336.885 153.97C334.005 148.99 332.565 143.41 332.565 137.23C332.565 131.05 334.005 125.5 336.885 120.58C339.825 115.66 343.755 111.82 348.675 109.06C353.655 106.3 359.115 104.92 365.055 104.92C370.995 104.92 376.425 106.3 381.345 109.06C386.325 111.82 390.225 115.66 393.045 120.58C395.925 125.5 397.365 131.05 397.365 137.23C397.365 143.41 395.925 148.99 393.045 153.97C390.165 158.89 386.265 162.73 381.345 165.49C376.425 168.25 370.995 169.63 365.055 169.63ZM365.055 155.59C370.095 155.59 374.115 153.91 377.115 150.55C380.175 147.19 381.705 142.75 381.705 137.23C381.705 131.65 380.175 127.21 377.115 123.91C374.115 120.55 370.095 118.87 365.055 118.87C359.955 118.87 355.875 120.52 352.815 123.82C349.815 127.12 348.315 131.59 348.315 137.23C348.315 142.81 349.815 147.28 352.815 150.64C355.875 153.94 359.955 155.59 365.055 155.59ZM480.177 105.82V169H464.787V131.11L450.657 169H438.237L424.017 131.02V169H408.627V105.82H426.807L444.537 149.56L462.087 105.82H480.177ZM509.334 118.15V130.93H529.944V142.81H509.334V156.67H532.644V169H493.944V105.82H532.644V118.15H509.334Z"/>
</mask>
<path d="M156.52 105.82L157.488 106.072L157.814 104.82H156.52V105.82ZM140.05 169V170H140.823L141.018 169.252L140.05 169ZM121.42 169L120.448 169.236L120.633 170H121.42V169ZM111.34 127.42L112.312 127.184L110.37 127.176L111.34 127.42ZM100.9 169V170H101.68L101.87 169.244L100.9 169ZM82.27 169L81.3007 169.246L81.4919 170H82.27V169ZM66.25 105.82V104.82H64.9648L65.2807 106.066L66.25 105.82ZM82.72 105.82L83.701 105.626L83.5417 104.82H82.72V105.82ZM91.81 151.81L90.829 152.004L92.7814 152.048L91.81 151.81ZM103.06 105.82V104.82H102.275L102.089 105.582L103.06 105.82ZM119.98 105.82L120.954 105.591L120.772 104.82H119.98V105.82ZM130.78 151.81L129.806 152.039L131.761 152.006L130.78 151.81ZM139.96 105.82V104.82H139.14L138.979 105.624L139.96 105.82ZM155.552 105.568L139.082 168.748L141.018 169.252L157.488 106.072L155.552 105.568ZM140.05 168H121.42V170H140.05V168ZM122.392 168.764L112.312 127.184L110.368 127.656L120.448 169.236L122.392 168.764ZM110.37 127.176L99.9301 168.756L101.87 169.244L112.31 127.664L110.37 127.176ZM100.9 168H82.27V170H100.9V168ZM83.2393 168.754L67.2193 105.574L65.2807 106.066L81.3007 169.246L83.2393 168.754ZM66.25 106.82H82.72V104.82H66.25V106.82ZM81.739 106.014L90.829 152.004L92.791 151.616L83.701 105.626L81.739 106.014ZM92.7814 152.048L104.031 106.058L102.089 105.582L90.8386 151.572L92.7814 152.048ZM103.06 106.82H119.98V104.82H103.06V106.82ZM119.006 106.049L129.806 152.039L131.754 151.581L120.954 105.591L119.006 106.049ZM131.761 152.006L140.941 106.016L138.979 105.624L129.799 151.614L131.761 152.006ZM139.96 106.82H156.52V104.82H139.96V106.82ZM182.328 118.15V117.15H181.328V118.15H182.328ZM182.328 130.93H181.328V131.93H182.328V130.93ZM202.938 130.93H203.938V129.93H202.938V130.93ZM202.938 142.81V143.81H203.938V142.81H202.938ZM182.328 142.81V141.81H181.328V142.81H182.328ZM182.328 156.67H181.328V157.67H182.328V156.67ZM205.638 156.67H206.638V155.67H205.638V156.67ZM205.638 169V170H206.638V169H205.638ZM166.938 169H165.938V170H166.938V169ZM166.938 105.82V104.82H165.938V105.82H166.938ZM205.638 105.82H206.638V104.82H205.638V105.82ZM205.638 118.15V119.15H206.638V118.15H205.638ZM181.328 118.15V130.93H183.328V118.15H181.328ZM182.328 131.93H202.938V129.93H182.328V131.93ZM201.938 130.93V142.81H203.938V130.93H201.938ZM202.938 141.81H182.328V143.81H202.938V141.81ZM181.328 142.81V156.67H183.328V142.81H181.328ZM182.328 157.67H205.638V155.67H182.328V157.67ZM204.638 156.67V169H206.638V156.67H204.638ZM205.638 168H166.938V170H205.638V168ZM167.938 169V105.82H165.938V169H167.938ZM166.938 106.82H205.638V104.82H166.938V106.82ZM204.638 105.82V118.15H206.638V105.82H204.638ZM205.638 117.15H182.328V119.15H205.638V117.15ZM233.72 157.12H232.72V158.12H233.72V157.12ZM253.88 157.12H254.88V156.12H253.88V157.12ZM253.88 169V170H254.88V169H253.88ZM218.33 169H217.33V170H218.33V169ZM218.33 105.82V104.82H217.33V105.82H218.33ZM233.72 105.82H234.72V104.82H233.72V105.82ZM233.72 158.12H253.88V156.12H233.72V158.12ZM252.88 157.12V169H254.88V157.12H252.88ZM253.88 168H218.33V170H253.88V168ZM219.33 169V105.82H217.33V169H219.33ZM218.33 106.82H233.72V104.82H218.33V106.82ZM232.72 105.82V157.12H234.72V105.82H232.72ZM265.36 120.67L266.234 121.156L266.237 121.151L265.36 120.67ZM276.61 109.24L277.101 110.112L277.104 110.11L276.61 109.24ZM312.34 111.04L312.936 110.237L312.936 110.237L312.34 111.04ZM323.05 127.24V128.24H324.347L324.017 126.986L323.05 127.24ZM306.13 127.24L305.228 127.671L305.499 128.24H306.13V127.24ZM300.73 121.21L300.212 122.066L300.222 122.071L300.73 121.21ZM281.38 124.09L282.127 124.755L282.127 124.755L281.38 124.09ZM300.73 153.43L300.222 152.569L300.212 152.574L300.73 153.43ZM306.13 147.4V146.4H305.499L305.228 146.969L306.13 147.4ZM323.05 147.4L324.017 147.654L324.347 146.4H323.05V147.4ZM312.34 163.6L312.93 164.408L312.936 164.403L312.34 163.6ZM276.61 165.4L276.112 166.267L276.118 166.271L276.125 166.274L276.61 165.4ZM265.36 153.97L266.234 153.484L266.234 153.484L265.36 153.97ZM262.31 137.32C262.31 131.229 263.627 125.85 266.234 121.156L264.486 120.184C261.694 125.21 260.31 130.931 260.31 137.32H262.31ZM266.237 121.151C268.849 116.391 272.466 112.718 277.101 110.112L276.12 108.368C271.154 111.162 267.272 115.109 264.484 120.189L266.237 121.151ZM277.104 110.11C281.799 107.443 287.116 106.1 293.08 106.1V104.1C286.804 104.1 281.141 105.517 276.116 108.37L277.104 110.11ZM293.08 106.1C300.394 106.1 306.599 108.027 311.745 111.843L312.936 110.237C307.402 106.133 300.766 104.1 293.08 104.1V106.1ZM311.745 111.843C316.89 115.659 320.337 120.859 322.083 127.494L324.017 126.986C322.163 119.941 318.471 114.341 312.936 110.237L311.745 111.843ZM323.05 126.24H306.13V128.24H323.05V126.24ZM307.033 126.809C305.694 124.004 303.763 121.838 301.238 120.349L300.222 122.071C302.378 123.342 304.047 125.196 305.228 127.671L307.033 126.809ZM301.248 120.354C298.796 118.87 296.003 118.14 292.9 118.14V120.14C295.677 120.14 298.104 120.79 300.212 122.065L301.248 120.354ZM292.9 118.14C287.898 118.14 283.778 119.895 280.634 123.425L282.127 124.755C284.862 121.685 288.422 120.14 292.9 120.14V118.14ZM280.634 123.425C277.493 126.95 275.97 131.618 275.97 137.32H277.97C277.97 131.982 279.388 127.83 282.127 124.755L280.634 123.425ZM275.97 137.32C275.97 143.022 277.493 147.69 280.634 151.215L282.127 149.885C279.388 146.81 277.97 142.658 277.97 137.32H275.97ZM280.634 151.215C283.778 154.745 287.898 156.5 292.9 156.5V154.5C288.422 154.5 284.862 152.955 282.127 149.885L280.634 151.215ZM292.9 156.5C296.003 156.5 298.796 155.77 301.248 154.285L300.212 152.574C298.104 153.85 295.677 154.5 292.9 154.5V156.5ZM301.238 154.291C303.763 152.802 305.694 150.636 307.033 147.831L305.228 146.969C304.047 149.444 302.378 151.298 300.222 152.569L301.238 154.291ZM306.13 148.4H323.05V146.4H306.13V148.4ZM322.083 147.146C320.337 153.781 316.89 158.981 311.745 162.797L312.936 164.403C318.471 160.299 322.163 154.699 324.017 147.654L322.083 147.146ZM311.75 162.792C306.604 166.551 300.398 168.45 293.08 168.45V170.45C300.763 170.45 307.396 168.449 312.93 164.408L311.75 162.792ZM293.08 168.45C287.113 168.45 281.793 167.135 277.096 164.526L276.125 166.274C281.148 169.065 286.808 170.45 293.08 170.45V168.45ZM277.109 164.533C272.467 161.864 268.847 158.186 266.234 153.484L264.486 154.456C267.274 159.474 271.154 163.416 276.112 166.267L277.109 164.533ZM266.234 153.484C263.627 148.79 262.31 143.411 262.31 137.32H260.31C260.31 143.709 261.694 149.43 264.486 154.456L266.234 153.484ZM348.675 165.49L348.186 166.362L348.19 166.365L348.675 165.49ZM336.885 153.97L336.019 154.471L336.023 154.477L336.026 154.483L336.885 153.97ZM336.885 120.58L336.026 120.067L336.022 120.075L336.885 120.58ZM348.675 109.06L348.19 108.185L348.186 108.188L348.675 109.06ZM381.345 109.06L380.856 109.932L380.86 109.935L381.345 109.06ZM393.045 120.58L392.177 121.077L392.182 121.085L393.045 120.58ZM393.045 153.97L393.908 154.475L393.911 154.471L393.045 153.97ZM381.345 165.49L381.834 166.362L381.834 166.362L381.345 165.49ZM377.115 150.55L376.376 149.877L376.369 149.884L377.115 150.55ZM377.115 123.91L376.369 124.576L376.375 124.583L376.382 124.59L377.115 123.91ZM352.815 123.82L352.082 123.14L352.075 123.147L352.815 123.82ZM352.815 150.64L352.069 151.306L352.075 151.313L352.082 151.32L352.815 150.64ZM365.055 168.63C359.277 168.63 353.985 167.29 349.16 164.615L348.19 166.365C353.325 169.21 358.953 170.63 365.055 170.63V168.63ZM349.164 164.618C344.399 161.945 340.595 158.23 337.743 153.457L336.026 154.483C339.055 159.55 343.111 163.515 348.186 166.362L349.164 164.618ZM337.751 153.469C334.965 148.653 333.565 143.248 333.565 137.23H331.565C331.565 143.572 333.045 149.327 336.019 154.471L337.751 153.469ZM333.565 137.23C333.565 131.212 334.965 125.839 337.748 121.085L336.022 120.075C333.045 125.161 331.565 130.888 331.565 137.23H333.565ZM337.743 121.093C340.595 116.32 344.399 112.605 349.164 109.932L348.186 108.188C343.111 111.035 339.055 115 336.026 120.067L337.743 121.093ZM349.16 109.935C353.985 107.26 359.277 105.92 365.055 105.92V103.92C358.953 103.92 353.325 105.34 348.19 108.185L349.16 109.935ZM365.055 105.92C370.833 105.92 376.093 107.26 380.856 109.932L381.834 108.188C376.757 105.34 371.157 103.92 365.055 103.92V105.92ZM380.86 109.935C385.681 112.607 389.448 116.316 392.177 121.077L393.913 120.083C391.001 115.004 386.969 111.033 381.83 108.185L380.86 109.935ZM392.182 121.085C394.965 125.839 396.365 131.212 396.365 137.23H398.365C398.365 130.888 396.885 125.161 393.908 120.075L392.182 121.085ZM396.365 137.23C396.365 143.248 394.965 148.653 392.179 153.469L393.911 154.471C396.885 149.327 398.365 143.572 398.365 137.23H396.365ZM392.182 153.465C389.391 158.233 385.619 161.946 380.856 164.618L381.834 166.362C386.911 163.514 390.939 159.547 393.908 154.475L392.182 153.465ZM380.856 164.618C376.093 167.29 370.833 168.63 365.055 168.63V170.63C371.157 170.63 376.757 169.21 381.834 166.362L380.856 164.618ZM365.055 156.59C370.342 156.59 374.647 154.815 377.861 151.216L376.369 149.884C373.582 153.005 369.848 154.59 365.055 154.59V156.59ZM377.854 151.223C381.116 147.641 382.705 142.943 382.705 137.23H380.705C380.705 142.557 379.234 146.739 376.376 149.877L377.854 151.223ZM382.705 137.23C382.705 131.461 381.118 126.757 377.848 123.23L376.382 124.59C379.231 127.663 380.705 131.839 380.705 137.23H382.705ZM377.861 123.244C374.647 119.645 370.342 117.87 365.055 117.87V119.87C369.848 119.87 373.582 121.455 376.369 124.576L377.861 123.244ZM365.055 117.87C359.717 117.87 355.357 119.608 352.082 123.14L353.548 124.5C356.393 121.432 360.192 119.87 365.055 119.87V117.87ZM352.075 123.147C348.867 126.676 347.315 131.41 347.315 137.23H349.315C349.315 131.77 350.763 127.564 353.555 124.493L352.075 123.147ZM347.315 137.23C347.315 142.995 348.869 147.722 352.069 151.306L353.561 149.974C350.761 146.838 349.315 142.625 349.315 137.23H347.315ZM352.082 151.32C355.357 154.852 359.717 156.59 365.055 156.59V154.59C360.192 154.59 356.393 153.028 353.548 149.96L352.082 151.32ZM480.177 105.82H481.177V104.82H480.177V105.82ZM480.177 169V170H481.177V169H480.177ZM464.787 169H463.787V170H464.787V169ZM464.787 131.11H465.787L463.85 130.761L464.787 131.11ZM450.657 169V170H451.351L451.594 169.349L450.657 169ZM438.237 169L437.3 169.351L437.543 170H438.237V169ZM424.017 131.02L424.953 130.669L423.017 131.02H424.017ZM424.017 169V170H425.017V169H424.017ZM408.627 169H407.627V170H408.627V169ZM408.627 105.82V104.82H407.627V105.82H408.627ZM426.807 105.82L427.734 105.444L427.481 104.82H426.807V105.82ZM444.537 149.56L443.61 149.936L444.542 152.234L445.465 149.932L444.537 149.56ZM462.087 105.82V104.82H461.411L461.159 105.448L462.087 105.82ZM479.177 105.82V169H481.177V105.82H479.177ZM480.177 168H464.787V170H480.177V168ZM465.787 169V131.11H463.787V169H465.787ZM463.85 130.761L449.72 168.651L451.594 169.349L465.724 131.459L463.85 130.761ZM450.657 168H438.237V170H450.657V168ZM439.173 168.649L424.953 130.669L423.08 131.371L437.3 169.351L439.173 168.649ZM423.017 131.02V169H425.017V131.02H423.017ZM424.017 168H408.627V170H424.017V168ZM409.627 169V105.82H407.627V169H409.627ZM408.627 106.82H426.807V104.82H408.627V106.82ZM425.88 106.196L443.61 149.936L445.464 149.184L427.734 105.444L425.88 106.196ZM445.465 149.932L463.015 106.192L461.159 105.448L443.609 149.188L445.465 149.932ZM462.087 106.82H480.177V104.82H462.087V106.82ZM509.334 118.15V117.15H508.334V118.15H509.334ZM509.334 130.93H508.334V131.93H509.334V130.93ZM529.944 130.93H530.944V129.93H529.944V130.93ZM529.944 142.81V143.81H530.944V142.81H529.944ZM509.334 142.81V141.81H508.334V142.81H509.334ZM509.334 156.67H508.334V157.67H509.334V156.67ZM532.644 156.67H533.644V155.67H532.644V156.67ZM532.644 169V170H533.644V169H532.644ZM493.944 169H492.944V170H493.944V169ZM493.944 105.82V104.82H492.944V105.82H493.944ZM532.644 105.82H533.644V104.82H532.644V105.82ZM532.644 118.15V119.15H533.644V118.15H532.644ZM508.334 118.15V130.93H510.334V118.15H508.334ZM509.334 131.93H529.944V129.93H509.334V131.93ZM528.944 130.93V142.81H530.944V130.93H528.944ZM529.944 141.81H509.334V143.81H529.944V141.81ZM508.334 142.81V156.67H510.334V142.81H508.334ZM509.334 157.67H532.644V155.67H509.334V157.67ZM531.644 156.67V169H533.644V156.67H531.644ZM532.644 168H493.944V170H532.644V168ZM494.944 169V105.82H492.944V169H494.944ZM493.944 106.82H532.644V104.82H493.944V106.82ZM531.644 105.82V118.15H533.644V105.82H531.644ZM532.644 117.15H509.334V119.15H532.644V117.15Z" fill="#F4F5FE" mask="url(#path-4-outside-2_1437_1619)"/>
</g>
<line x1="1" y1="-1" x2="116.875" y2="-1" transform="matrix(-0.806857 0.590746 -0.806857 -0.590746 138.347 0)" stroke="white" stroke-width="2" stroke-linecap="round"/>
<line x1="1" y1="-1" x2="90.4098" y2="-1" transform="matrix(-0.806857 0.590746 -0.806857 -0.590746 73.7546 31.1201)" stroke="white" stroke-width="2" stroke-linecap="round"/>
<defs>
<clipPath id="clip0_1437_1619">
<rect width="497.161" height="37" fill="white" transform="translate(63.8387 114)"/>
</clipPath>
<clipPath id="clip1_1437_1619">
<rect width="497.161" height="21" fill="white" transform="translate(63.8387 153)"/>
</clipPath>
</defs>
</svg>
